<?xml version="1.0" encoding="UTF-8" standalone="no"?>
<svg
   xmlns:dc="http://purl.org/dc/elements/1.1/"
   xmlns:cc="http://creativecommons.org/ns#"
   xmlns:rdf="http://www.w3.org/1999/02/22-rdf-syntax-ns#"
   xmlns:svg="http://www.w3.org/2000/svg"
   xmlns="http://www.w3.org/2000/svg"
   xmlns:sodipodi="http://sodipodi.sourceforge.net/DTD/sodipodi-0.dtd"
   xmlns:inkscape="http://www.inkscape.org/namespaces/inkscape"
   width="30.0mm"
   height="15.0mm"
   viewBox="0 0 30.0 15.0"
   version="1.1"
   id="svg8"
   sodipodi:docname="qw footprint v2.svg"
   inkscape:version="1.0 (4035a4fb49, 2020-05-01)">
  <defs
     id="defs2">
    <clipPath
       clipPathUnits="userSpaceOnUse"
       id="clipPath891">
      <path
         d="M 0,850.393 H 850.394 V 0 H 0 Z"
         id="path889" />
    </clipPath>
  </defs>
  <sodipodi:namedview
     id="base"
     pagecolor="#ffffff"
     bordercolor="#666666"
     borderopacity="1.0"
     inkscape:pageopacity="0.0"
     inkscape:pageshadow="2"
     inkscape:zoom="11.313709"
     inkscape:cx="25.717593"
     inkscape:cy="13.314229"
     inkscape:document-units="mm"
     inkscape:current-layer="g852"
     inkscape:document-rotation="0"
     showgrid="true"
     inkscape:window-width="3440"
     inkscape:window-height="1369"
     inkscape:window-x="-8"
     inkscape:window-y="247"
     inkscape:window-maximized="1"
     borderlayer="true">
    <inkscape:grid
       spacingx="2.54"
       spacingy="2.54"
       empspacing="1"
       type="xygrid"
       units="mm"
       id="grid834" />
  </sodipodi:namedview>
  <metadata
     id="metadata5">
    <rdf:RDF>
      <cc:Work
         rdf:about="">
        <dc:format>image/svg+xml</dc:format>
        <dc:type
           rdf:resource="http://purl.org/dc/dcmitype/StillImage" />
        <dc:title />
      </cc:Work>
    </rdf:RDF>
  </metadata>
  <g
     inkscape:label="[fixed] BG"
     inkscape:groupmode="layer"
     sodipodi:insensitive="true"
     id="g840"
     style="display:inline">
    <rect
       x="0"
       y="0"
       width="30"
       height="15"
       style="fill:#ffffff;fill-opacity:1;stroke:none"
       id="rect838" />
  </g>
  <g
     inkscape:label="Edge.Cuts"
     inkscape:groupmode="layer"
     id="g842"
     style="display:inline" />
  <g
     inkscape:label="B.Cu"
     inkscape:groupmode="layer"
     id="g844"
     style="display:inline" />
  <g
     inkscape:label="B.Mask"
     inkscape:groupmode="layer"
     id="g846"
     style="display:inline" />
  <g
     inkscape:label="B.SilkS"
     inkscape:groupmode="layer"
     id="g848"
     style="display:inline" />
  <g
     inkscape:label="F.Cu"
     inkscape:groupmode="layer"
     id="g850"
     style="display:inline">
    <path
       transform="scale(0.26458333)"
       id="path998"
       style="color:#000000;font-style:normal;font-variant:normal;font-weight:bold;font-stretch:normal;font-size:10.5833px;line-height:1.25;font-family:Comfortaa;-inkscape-font-specification:'Comfortaa Bold';font-variant-ligatures:normal;font-variant-position:normal;font-variant-caps:normal;font-variant-numeric:normal;font-variant-alternates:normal;font-variant-east-asian:normal;font-feature-settings:normal;font-variation-settings:normal;text-indent:0;text-align:start;text-decoration:none;text-decoration-line:none;text-decoration-style:solid;text-decoration-color:#000000;letter-spacing:-0.264583px;word-spacing:normal;text-transform:none;writing-mode:lr-tb;direction:ltr;text-orientation:mixed;dominant-baseline:auto;baseline-shift:baseline;text-anchor:start;white-space:normal;shape-padding:0;shape-margin:0;inline-size:0;clip-rule:nonzero;display:inline;overflow:visible;visibility:visible;isolation:auto;mix-blend-mode:normal;color-interpolation:sRGB;color-interpolation-filters:linearRGB;solid-color:#000000;solid-opacity:1;vector-effect:none;fill:#917c6f;fill-opacity:1;fill-rule:nonzero;stroke:none;stroke-width:2.32917;stroke-linecap:butt;stroke-linejoin:miter;stroke-miterlimit:4;stroke-dasharray:none;stroke-dashoffset:0;stroke-opacity:1;color-rendering:auto;image-rendering:auto;shape-rendering:auto;text-rendering:auto;enable-background:accumulate;stop-color:#000000"
       d="M 37.048828 10.607422 C 36.696557 10.607422 36.375674 10.636645 36.076172 10.673828 C 36.070616 10.674265 36.066103 10.681225 36.060547 10.681641 C 34.188494 10.831326 32.404873 11.325168 30.796875 12.269531 C 28.941982 13.347627 27.440144 14.849754 26.337891 16.726562 L 26.337891 16.734375 L 26.332031 16.742188 C 25.246981 18.641026 24.707031 20.790249 24.707031 23.119141 C 24.707031 25.433482 25.199381 27.574873 26.191406 29.46875 L 26.191406 29.476562 L 26.199219 29.482422 C 27.045924 31.026454 28.169517 32.316909 29.513672 33.34375 C 30.056745 34.018637 30.666639 34.629276 31.335938 35.167969 C 32.192888 36.292877 33.228941 37.264355 34.443359 38.039062 L 34.451172 38.046875 C 36.216522 39.142605 38.242572 39.699215 40.423828 39.699219 C 41.357088 39.699219 42.193694 39.411285 43.058594 39.205078 L 43.058594 41.759766 C 43.058594 42.604422 43.374844 43.454956 43.974609 44.054688 C 44.361777 44.440096 44.917684 44.518568 45.435547 44.667969 C 45.578678 45.174497 45.636586 45.724465 46.011719 46.099609 C 46.400345 46.488311 46.959268 46.562972 47.480469 46.712891 C 47.623751 47.218497 47.682112 47.762198 48.056641 48.136719 C 48.67623 48.756418 49.552843 49.097656 50.433594 49.097656 C 51.290775 49.097656 52.148891 48.734151 52.736328 48.115234 C 53.321973 47.519653 53.646054 46.683256 53.644531 45.841797 L 53.615234 28.080078 C 53.616145 28.142134 53.623047 28.11348 53.623047 27.917969 L 53.623047 17.945312 C 53.623047 16.942574 53.098664 16.16112 52.587891 15.650391 C 52.214965 15.277389 51.687835 15.182881 51.193359 15.029297 C 50.996181 14.515637 50.863366 13.929745 50.544922 13.611328 C 50.172336 13.238693 49.650771 13.138543 49.15625 12.984375 C 48.960093 12.470444 48.825966 11.888425 48.505859 11.568359 C 47.895526 10.958138 47.031115 10.607422 46.166016 10.607422 L 37.152344 10.607422 L 37.048828 10.607422 z M 56.271484 10.763672 C 55.212449 10.763672 54.089945 11.296624 53.652344 12.269531 L 53.644531 12.275391 L 53.644531 12.291016 C 53.284947 13.145135 53.330063 14.083018 53.585938 15.074219 L 53.599609 15.117188 L 59.660156 33.314453 L 59.667969 33.322266 C 59.882533 33.922963 60.284954 34.448152 60.789062 34.835938 L 60.826172 34.865234 L 60.871094 34.894531 C 61.103799 35.044212 61.381694 35.055402 61.638672 35.144531 L 61.705078 35.351562 L 61.712891 35.367188 C 61.927076 35.966827 62.329912 36.491622 62.835938 36.880859 L 62.873047 36.910156 L 62.916016 36.931641 C 63.150271 37.082319 63.425981 37.093041 63.683594 37.181641 L 63.75 37.396484 L 63.757812 37.412109 C 63.972376 38.012947 64.376769 38.536064 64.880859 38.923828 L 64.917969 38.955078 L 64.960938 38.976562 C 65.512116 39.331044 66.1601 39.529297 66.814453 39.529297 C 67.48321 39.529297 68.155573 39.335688 68.705078 38.955078 L 68.710938 38.955078 L 68.71875 38.947266 C 69.267107 38.55568 69.705843 37.992013 69.892578 37.337891 L 71.427734 31.925781 L 71.783203 33.240234 L 71.783203 33.248047 C 71.970894 33.90513 72.417946 34.466804 72.964844 34.857422 L 72.986328 34.871094 L 73.007812 34.894531 C 73.24203 35.045183 73.523504 35.049033 73.783203 35.138672 L 73.820312 35.285156 L 73.828125 35.292969 C 74.01559 35.949158 74.460959 36.510377 75.009766 36.902344 L 75.03125 36.916016 L 75.054688 36.931641 C 75.29068 37.083442 75.567364 37.092459 75.828125 37.181641 L 75.865234 37.330078 L 75.873047 37.337891 C 76.060738 37.994972 76.499966 38.556644 77.046875 38.947266 L 77.076172 38.960938 L 77.099609 38.976562 C 77.650778 39.331082 78.296803 39.529297 78.951172 39.529297 C 79.619918 39.529297 80.292295 39.33565 80.841797 38.955078 L 80.863281 38.939453 L 80.886719 38.923828 C 81.4027 38.527 81.813748 37.969785 81.994141 37.337891 L 88.017578 19.259766 C 88.374883 18.244761 88.46078 17.201122 87.992188 16.298828 C 87.646217 15.615118 86.836127 15.425349 86.087891 15.228516 C 86.049604 14.898196 86.110201 14.566119 85.947266 14.253906 C 85.59902 13.570872 84.791051 13.378768 84.042969 13.183594 C 84.003964 12.856748 84.0615 12.523948 83.902344 12.216797 C 83.431672 11.293447 82.353897 10.763672 81.318359 10.763672 C 80.5653 10.763672 79.801239 11.023285 79.236328 11.523438 C 78.675529 12.019946 78.319523 12.689149 78.085938 13.449219 L 78.085938 13.457031 C 78.084887 13.460461 78.079259 13.461404 78.078125 13.464844 L 76.513672 18.373047 L 76.240234 17.294922 L 76.240234 17.289062 C 76.082522 16.62391 75.689096 16.01979 75.154297 15.589844 C 74.877756 15.346004 74.507046 15.323814 74.166016 15.207031 C 74.001092 14.561666 73.630175 13.963557 73.109375 13.544922 C 72.837018 13.304777 72.471199 13.292399 72.136719 13.175781 C 71.973689 12.523654 71.590056 11.92276 71.066406 11.501953 C 70.506122 11.010204 69.762982 10.763672 69.021484 10.763672 C 68.250291 10.763672 67.476118 10.988893 66.902344 11.507812 C 66.403416 11.93412 66.047814 12.512215 65.861328 13.146484 L 64.089844 19.111328 L 63.587891 17.539062 C 63.334481 16.747187 62.966907 16.076124 62.361328 15.589844 C 62.07721 15.339229 61.702015 15.300875 61.351562 15.183594 C 61.108351 14.547263 60.829986 13.948038 60.318359 13.539062 C 60.03381 13.290021 59.656462 13.248898 59.306641 13.132812 C 59.063655 12.499084 58.783435 11.901803 58.273438 11.494141 C 57.726816 11.015134 56.996235 10.763671 56.271484 10.763672 z M 48.369141 13.832031 C 48.897863 13.866266 49.351393 14.062289 49.722656 14.433594 C 50.104211 14.815117 50.416016 15.304911 50.416016 15.904297 L 50.416016 25.875 C 50.416016 25.93099 50.405053 25.983459 50.404297 26.039062 L 50.435547 43.802734 C 50.436628 44.402205 50.244798 44.891909 49.863281 45.273438 C 49.481836 45.682155 48.992007 45.886719 48.392578 45.886719 C 47.76597 45.886719 47.24656 45.682189 46.837891 45.273438 C 46.46405 44.899586 46.279043 44.419102 46.271484 43.835938 C 46.298092 43.836692 46.320822 43.84375 46.347656 43.84375 C 46.947082 43.84375 47.436914 43.639157 47.818359 43.230469 C 48.199869 42.848944 48.393636 42.35728 48.392578 41.757812 L 48.361328 23.996094 C 48.362084 23.940493 48.371094 23.888021 48.371094 23.832031 L 48.371094 13.861328 C 48.371094 13.851161 48.369318 13.84216 48.369141 13.832031 z M 83.363281 13.96875 C 84.126137 13.96875 84.645518 14.240264 84.917969 14.785156 C 85.190446 15.302813 85.176711 15.9835 84.876953 16.828125 L 78.828125 34.974609 C 78.719233 35.356053 78.487068 35.682638 78.132812 35.955078 C 77.778608 36.200419 77.369412 36.324219 76.90625 36.324219 C 76.470316 36.324219 76.061109 36.200419 75.679688 35.955078 C 75.298235 35.682638 75.054276 35.356053 74.945312 34.974609 L 74.755859 34.271484 C 74.792181 34.273261 74.82662 34.279297 74.863281 34.279297 C 75.326443 34.279297 75.735626 34.157446 76.089844 33.912109 C 76.444088 33.639658 76.676268 33.313083 76.785156 32.931641 L 82.832031 14.785156 C 82.932907 14.500919 82.989485 14.241348 83.025391 13.994141 C 83.134392 13.97804 83.245889 13.96875 83.363281 13.96875 z M 71.150391 13.976562 C 71.652917 13.992524 72.062605 14.135203 72.371094 14.417969 C 72.7253 14.69042 72.955482 15.058308 73.064453 15.521484 L 75.554688 25.220703 L 74.712891 27.861328 L 71.150391 13.976562 z M 58.447266 13.978516 C 58.901448 14.003518 59.28317 14.14582 59.580078 14.417969 C 59.934258 14.69042 60.219531 15.166509 60.4375 15.847656 L 63.46875 25.326172 L 62.800781 27.583984 L 58.447266 13.978516 z M 37.152344 15.439453 C 38.541849 15.439453 39.779348 15.779831 40.869141 16.460938 C 41.770857 17.001959 42.508762 17.73111 43.09375 18.626953 C 43.032484 18.587544 42.976878 18.541588 42.914062 18.503906 C 41.824267 17.822804 40.586767 17.482422 39.197266 17.482422 C 37.835003 17.482422 36.595586 17.822806 35.478516 18.503906 C 34.388709 19.157783 33.51522 20.07259 32.861328 21.244141 C 32.234688 22.388442 31.919922 23.696718 31.919922 25.167969 C 31.919922 26.611949 32.234689 27.91828 32.861328 29.089844 C 32.968627 29.277613 33.089923 29.449716 33.208984 29.625 C 32.226862 28.962031 31.425098 28.108654 30.818359 27.046875 C 30.191718 25.875324 29.876953 24.567041 29.876953 23.123047 C 29.876953 21.651798 30.191719 20.343507 30.818359 19.199219 C 31.472251 18.027655 32.343787 17.114807 33.433594 16.460938 C 34.550664 15.779833 35.790082 15.439453 37.152344 15.439453 z M 68.892578 18.099609 L 70.171875 22.833984 L 66.730469 34.974609 C 66.621573 35.356053 66.375669 35.682638 65.994141 35.955078 C 65.639961 36.200419 65.232709 36.324219 64.769531 36.324219 C 64.333616 36.324219 63.92441 36.200419 63.542969 35.955078 C 63.188785 35.682638 62.942893 35.356053 62.806641 34.974609 L 62.572266 34.269531 C 62.623932 34.273084 62.674141 34.279297 62.726562 34.279297 C 63.189744 34.279297 63.596992 34.157446 63.951172 33.912109 C 64.3327 33.639658 64.578612 33.313083 64.6875 32.931641 L 68.892578 18.099609 z M 41.242188 20.691406 C 41.82547 20.691406 42.328104 20.83622 42.837891 20.978516 C 43.041569 21.642847 43.220703 22.316621 43.220703 23.119141 C 43.220703 24.390022 42.951896 25.49415 42.423828 26.486328 C 41.889607 27.461849 41.184642 28.210211 40.261719 28.789062 C 40.258669 28.790974 40.257308 28.794985 40.253906 28.796875 C 39.354681 29.333002 38.353451 29.601563 37.152344 29.601562 C 36.557293 29.601562 36.032102 29.44637 35.5 29.298828 C 35.305335 28.641374 35.130859 27.975858 35.130859 27.208984 C 35.130859 25.902481 35.402442 24.802971 35.927734 23.84375 C 36.491486 22.837566 37.207383 22.093917 38.119141 21.546875 L 38.126953 21.541016 C 39.064174 20.969565 40.073856 20.691407 41.242188 20.691406 z M 44.222656 30.775391 L 44.222656 34.660156 C 43.784503 34.969233 43.32766 35.258043 42.832031 35.505859 C 41.469761 36.159771 39.986385 36.486328 38.378906 36.486328 C 36.389999 36.486328 34.603673 35.996465 33.023438 35.015625 C 31.928444 34.317115 31.001634 33.443254 30.220703 32.417969 C 30.468843 32.607531 30.713676 32.800511 30.980469 32.970703 C 32.560704 33.951534 34.347028 34.445312 36.335938 34.445312 C 37.943416 34.445313 39.426797 34.116799 40.789062 33.462891 C 42.017519 32.848656 43.059415 32.035744 43.933594 31.044922 C 43.93669 31.042142 43.940264 31.039889 43.943359 31.037109 L 43.941406 31.035156 C 43.953669 31.021381 43.966068 31.007704 43.978516 30.994141 L 43.982422 30.998047 C 44.063577 30.924882 44.145602 30.852637 44.222656 30.775391 z " />
  </g>
  <g
     inkscape:label="F.Mask"
     inkscape:groupmode="layer"
     id="g852"
     style="display:inline">
    <path
       transform="scale(0.26458333)"
       id="path855-0"
       style="font-style:normal;font-variant:normal;font-weight:bold;font-stretch:normal;font-size:10.5833px;line-height:1.25;font-family:Comfortaa;-inkscape-font-specification:'Comfortaa Bold';letter-spacing:-0.264583px;display:inline;fill:#44bba4;fill-opacity:1;stroke-width:1.0217"
       d="M 50.412109 15.875 C 50.412268 15.884562 50.416016 15.892706 50.416016 15.902344 L 50.416016 25.875 C 50.416016 25.93099 50.405053 25.983462 50.404297 26.039062 L 50.435547 43.802734 C 50.436605 44.402205 50.244809 44.891909 49.863281 45.273438 C 49.481836 45.68214 48.992007 45.886719 48.392578 45.886719 C 48.364988 45.886719 48.339599 45.879662 48.3125 45.878906 C 48.320059 46.462129 48.506981 46.942528 48.880859 47.316406 C 49.289528 47.725151 49.808931 47.929688 50.435547 47.929688 C 51.034976 47.929688 51.524805 47.725109 51.90625 47.316406 C 52.287774 46.934886 52.479597 46.44321 52.478516 45.84375 L 52.447266 28.082031 C 52.448022 28.026427 52.458984 27.975912 52.458984 27.919922 L 52.458984 17.947266 C 52.458984 17.34788 52.147176 16.858085 51.765625 16.476562 C 51.394438 16.105265 50.940809 15.909246 50.412109 15.875 z M 39.197266 17.482422 C 37.835003 17.482422 36.595586 17.822804 35.478516 18.503906 C 34.388709 19.157782 33.51522 20.07259 32.861328 21.244141 C 32.234689 22.388442 31.919922 23.696718 31.919922 25.167969 C 31.919922 26.611949 32.234688 27.91828 32.861328 29.089844 C 32.925223 29.201656 32.997723 29.303565 33.068359 29.408203 C 33.206391 29.507709 33.338385 29.613834 33.484375 29.705078 C 33.805204 29.892877 34.139629 30.04471 34.480469 30.177734 C 34.140538 29.261817 33.964844 28.274635 33.964844 27.210938 C 33.964844 25.739688 34.275703 24.431404 34.902344 23.287109 C 35.556235 22.115559 36.429726 21.200745 37.519531 20.546875 C 38.636599 19.865769 39.877979 19.525391 41.240234 19.525391 C 42.121177 19.525391 42.931988 19.680125 43.691406 19.955078 C 43.591279 19.712944 43.486714 19.473114 43.361328 19.244141 C 43.220148 18.980196 43.063103 18.733169 42.898438 18.496094 C 41.8123 17.821199 40.580426 17.482422 39.197266 17.482422 z M 32.265625 34.460938 C 33.046455 35.485923 33.973604 36.360221 35.068359 37.058594 C 36.648596 38.039427 38.432967 38.531246 40.421875 38.53125 C 41.743108 38.53125 42.973492 38.292317 44.128906 37.849609 L 44.128906 34.71875 C 43.719559 35.005603 43.293747 35.274999 42.832031 35.505859 C 41.469761 36.159769 39.986385 36.486328 38.378906 36.486328 C 36.39 36.486328 34.603674 35.996465 33.023438 35.015625 C 32.756679 34.845456 32.513735 34.650471 32.265625 34.460938 z " />
    <path
       transform="scale(0.26458333)"
       id="path865-6"
       style="font-style:normal;font-variant:normal;font-weight:bold;font-stretch:normal;font-size:10.5833px;line-height:1.25;font-family:Comfortaa;-inkscape-font-specification:'Comfortaa Bold';letter-spacing:-0.264583px;display:inline;fill:#44bba4;fill-opacity:1;stroke-width:1.0217"
       d="M 85.408203 16.011719 C 85.290735 16.011719 85.177399 16.021009 85.068359 16.037109 C 85.032454 16.284786 84.978055 16.543253 84.876953 16.828125 L 78.828125 34.974609 C 78.719237 35.356053 78.487056 35.682638 78.132812 35.955078 C 77.778595 36.200419 77.369412 36.324219 76.90625 36.324219 C 76.869967 36.324219 76.836573 36.316192 76.800781 36.314453 L 76.988281 37.017578 C 77.097245 37.399022 77.343157 37.725606 77.724609 37.998047 C 78.106032 38.243376 78.515226 38.367188 78.951172 38.367188 C 79.414327 38.367184 79.823525 38.243376 80.177734 37.998047 C 80.531989 37.725607 80.762198 37.399022 80.871094 37.017578 L 86.919922 18.873047 C 87.219676 18.028418 87.233404 17.345777 86.960938 16.828125 C 86.688479 16.283234 86.171063 16.011719 85.408203 16.011719 z M 73.193359 16.017578 L 75.511719 25.054688 L 76.353516 22.414062 L 75.107422 17.564453 C 74.998447 17.101265 74.768265 16.733388 74.414062 16.460938 C 74.105207 16.177842 73.696698 16.033246 73.193359 16.017578 z M 60.492188 16.021484 L 63.416016 25.162109 L 64.083984 22.908203 L 62.480469 17.890625 C 62.262496 17.209465 61.97723 16.733388 61.623047 16.460938 C 61.326377 16.189007 60.945882 16.046665 60.492188 16.021484 z M 70.121094 23.013672 L 66.730469 34.974609 C 66.621581 35.356052 66.375669 35.682638 65.994141 35.955078 C 65.639961 36.200419 65.232709 36.324219 64.769531 36.324219 C 64.717638 36.324219 64.666334 36.315977 64.615234 36.3125 L 64.851562 37.017578 C 64.987777 37.399022 65.233711 37.725602 65.587891 37.998047 C 65.969336 38.243376 66.376581 38.367188 66.8125 38.367188 C 67.275674 38.367188 67.684883 38.243376 68.039062 37.998047 C 68.420587 37.725603 68.664546 37.399022 68.773438 37.017578 L 71.402344 27.75 L 70.121094 23.013672 z " />
  </g>
  <g
     inkscape:label="F.SilkS"
     inkscape:groupmode="layer"
     id="g854"
     style="display:inline">
    <path
       id="path1511"
       style="font-style:normal;font-variant:normal;font-weight:bold;font-stretch:normal;font-size:10.5833px;line-height:1.25;font-family:Comfortaa;-inkscape-font-specification:'Comfortaa Bold';letter-spacing:-0.264583px;display:inline;fill:#d4aa00;stroke-width:0.270323"
       d="m 9.8031576,3.1154874 c -0.080801,0 -0.1583137,0.00716 -0.2338935,0.016877 C 9.1104348,3.1685332 8.6875167,3.2874911 8.3052789,3.5119763 7.8583443,3.7714903 7.5012587,4.1285772 7.234539,4.5827215 6.9750269,5.0368679 6.8454167,5.5485988 6.8454167,6.1180855 c 0,0.5694867 0.1190304,1.0812157 0.3569163,1.5353639 0.2450927,0.4469314 0.5766089,0.8034953 0.9947104,1.0702112 0.4181042,0.2595115 0.890338,0.3896444 1.4165702,0.3896444 0.4253114,0 0.8180124,-0.086743 1.1784454,-0.2597562 0.360434,-0.180219 0.663552,-0.4216356 0.908648,-0.7243967 v 2.9191969 c 0,0.158608 0.05006,0.288713 0.151008,0.389657 0.108126,0.108146 0.245495,0.162082 0.411286,0.162082 0.158598,0 0.288201,-0.05395 0.389125,-0.162082 0.100945,-0.100944 0.151815,-0.231049 0.151529,-0.389657 l -0.0082,-4.6995554 c 2e-4,-0.014711 0.0031,-0.028506 0.0031,-0.04332 V 3.667163 c 0,-0.1585895 -0.08225,-0.2881817 -0.183202,-0.3891264 C 12.507218,3.1698914 12.373733,3.1154237 12.215134,3.1154237 H 9.8307898 Z m 0.026921,0.9693692 c 0.3676394,0 0.6952784,0.090116 0.9836194,0.2703249 0.288342,0.1730032 0.515824,0.4149409 0.681626,0.7249172 0.165791,0.3027594 0.248672,0.6487386 0.248672,1.0380068 0,0.3820568 -0.08286,0.728036 -0.248672,1.0380087 -0.165802,0.3027612 -0.393283,0.544169 -0.681625,0.7243856 -0.288341,0.1729761 -0.615981,0.2592375 -0.9836196,0.2592375 -0.3604319,0 -0.6885965,-0.086231 -0.9841547,-0.2592375 C 8.5575801,7.7002832 8.3267547,7.4588754 8.1537459,7.1561142 7.9879473,6.8461415 7.9050691,6.5001623 7.9050691,6.1181055 c 0,-0.3892682 0.082878,-0.7352474 0.2486768,-1.0380068 C 8.3267547,4.7701224 8.5575801,4.5281847 8.8459246,4.3551815 9.1414828,4.1749722 9.4696474,4.0848566 9.8300786,4.0848566 Z" />
    <path
       d="m 16.596192,9.0698658 q -0.173004,0 -0.324389,-0.097368 -0.140566,-0.108129 -0.194637,-0.2595141 L 14.476845,3.9120263 q -0.08654,-0.3352102 0,-0.5406534 0.09727,-0.2162522 0.410899,-0.2162522 0.205443,0 0.335198,0.118936 0.140566,0.1081252 0.227075,0.3784593 l 1.362438,4.2603127 h -0.378458 l 1.28674,-4.3468235 q 0.05405,-0.1838233 0.183825,-0.2919485 0.129757,-0.118936 0.356831,-0.118936 0.216254,0 0.34601,0.118936 0.140576,0.1081252 0.183825,0.2919485 l 1.048858,4.0873095 H 19.677892 L 20.953823,3.652516 q 0.151385,-0.4973953 0.562273,-0.4973953 0.302762,0 0.410887,0.2162522 0.108138,0.2054432 -0.01083,0.5406534 L 20.31583,8.7129835 q -0.04322,0.1513851 -0.183814,0.2595141 -0.140576,0.097368 -0.324392,0.097368 -0.173013,0 -0.324388,-0.097368 -0.151385,-0.108129 -0.194634,-0.2595141 l -1.11374,-4.1197478 h 0.108137 l -1.167805,4.1197478 q -0.04322,0.1513851 -0.194634,0.2595141 -0.140567,0.097368 -0.324391,0.097368 z"
       style="font-style:normal;font-variant:normal;font-weight:bold;font-stretch:normal;font-size:10.5833px;line-height:1.25;font-family:Comfortaa;-inkscape-font-specification:'Comfortaa Bold';letter-spacing:-0.264583px;display:inline;fill:#d4aa00;stroke-width:0.270323"
       id="path1513" />
  </g>
  <g
     inkscape:label="Dwgs.User"
     inkscape:groupmode="layer"
     id="g856"
     style="display:inline">
    <path
       transform="scale(0.26458333)"
       id="path1507"
       style="font-style:normal;font-variant:normal;font-weight:bold;font-stretch:normal;font-size:10.5833px;line-height:1.25;font-family:Comfortaa;-inkscape-font-specification:'Comfortaa Bold';letter-spacing:-0.264583px;display:inline;stroke-width:1.0217"
       d="m 48.369141,13.832031 c 1.77e-4,0.01013 0.002,0.01913 0.002,0.0293 v 9.970703 c 0,0.05599 -0.009,0.108462 -0.0098,0.164063 l 0.03125,17.761718 c 0.0011,0.599468 -0.192709,1.091132 -0.574219,1.472657 -0.381445,0.408688 -0.871277,0.613281 -1.470703,0.613281 -0.02683,0 -0.04956,-0.0071 -0.07617,-0.0078 0.0076,0.583165 0.192566,1.063648 0.566407,1.4375 0.408669,0.408752 0.928079,0.613281 1.554687,0.613281 0.599429,0 1.089258,-0.204563 1.470703,-0.613281 0.381517,-0.381529 0.573347,-0.871233 0.572266,-1.470704 l -0.03125,-17.763672 c 7.56e-4,-0.0556 0.01172,-0.108072 0.01172,-0.164062 v -9.970703 c 0,-0.599386 -0.311805,-1.08918 -0.69336,-1.470703 -0.371263,-0.371305 -0.824793,-0.567328 -1.353515,-0.601563 z m 34.99414,0.136719 c -0.117392,0 -0.228889,0.0093 -0.33789,0.02539 -0.03591,0.247207 -0.09248,0.506778 -0.19336,0.791015 L 76.785156,32.93164 c -0.108888,0.381442 -0.341068,0.708017 -0.695312,0.980468 -0.354218,0.245337 -0.763401,0.367188 -1.226563,0.367188 -0.03666,0 -0.0711,-0.006 -0.107422,-0.0078 l 0.189453,0.703125 c 0.108964,0.381444 0.352923,0.708029 0.734376,0.980469 0.381422,0.245341 0.790628,0.369141 1.226562,0.369141 0.463162,0 0.872357,-0.1238 1.226562,-0.369141 0.354256,-0.27244 0.586421,-0.599025 0.695313,-0.980469 l 6.048828,-18.146484 c 0.299758,-0.844625 0.313493,-1.525312 0.04102,-2.042969 -0.272451,-0.544892 -0.791832,-0.816406 -1.554688,-0.816406 z m -12.21289,0.0078 3.5625,13.884766 0.841797,-2.640625 -2.490235,-9.699219 C 72.955482,15.058308 72.7253,14.69042 72.371094,14.417969 72.062605,14.135203 71.652917,13.992524 71.150391,13.976562 Z m -12.703125,0.002 4.353515,13.605468 L 63.46875,25.326206 60.4375,15.84769 C 60.219531,15.166509 59.934258,14.69042 59.580078,14.417969 59.28317,14.14582 58.901448,14.003518 58.447266,13.978516 Z m -21.294922,1.460937 c -1.362262,0 -2.60168,0.34038 -3.71875,1.021485 -1.089807,0.65387 -1.961343,1.566717 -2.615235,2.738281 -0.62664,1.144288 -0.941406,2.452579 -0.941406,3.923828 0,1.443994 0.314765,2.752277 0.941406,3.923828 0.606739,1.061779 1.408503,1.915156 2.390625,2.578125 -0.119061,-0.175284 -0.240357,-0.347387 -0.347656,-0.535156 -0.626639,-1.171564 -0.941406,-2.477895 -0.941406,-3.921875 0,-1.471251 0.314766,-2.779527 0.941406,-3.923828 0.653892,-1.171551 1.527381,-2.086358 2.617188,-2.740235 1.11707,-0.6811 2.356487,-1.021484 3.71875,-1.021484 1.389501,0 2.627,0.340382 3.716796,1.021484 0.06282,0.03768 0.118422,0.08364 0.179688,0.123047 C 42.508762,17.73111 41.770857,17.00196 40.869141,16.460938 39.779348,15.779831 38.541849,15.439453 37.152344,15.439453 Z M 68.892578,18.099609 64.6875,32.931641 c -0.108888,0.381442 -0.3548,0.708017 -0.736328,0.980468 -0.35418,0.245337 -0.761428,0.367188 -1.22461,0.367188 -0.05242,0 -0.10263,-0.0062 -0.154296,-0.0098 l 0.234375,0.705078 c 0.136252,0.381444 0.382144,0.708029 0.736328,0.980469 0.381441,0.245341 0.790647,0.369141 1.226562,0.369141 0.463178,0 0.87043,-0.1238 1.22461,-0.369141 0.381528,-0.27244 0.627432,-0.599025 0.736328,-0.980469 L 70.171875,22.833984 Z M 44.222656,30.775391 c -0.09298,0.09321 -0.190946,0.181438 -0.289062,0.269531 -0.874179,0.990822 -1.916075,1.803734 -3.144532,2.417969 -1.362266,0.653908 -2.845645,0.982422 -4.453124,0.982421 -1.98891,0 -3.775234,-0.493778 -5.355469,-1.474609 -0.266793,-0.170192 -0.511626,-0.363172 -0.759766,-0.552734 0.780931,1.025285 1.707741,1.899146 2.802735,2.597656 1.580236,0.98084 3.366561,1.470703 5.355468,1.470703 1.607479,0 3.090855,-0.326557 4.453125,-0.980469 0.495629,-0.247816 0.952472,-0.536626 1.390625,-0.845703 z" />
  </g>
  <g
     inkscape:label="Drill"
     inkscape:groupmode="layer"
     id="g858"
     style="display:none" />
</svg>
