<?xml version="1.0" encoding="UTF-8" standalone="no"?>
<!-- Created with Inkscape (http://www.inkscape.org/) -->

<svg
   width="20.0mm"
   height="20.0mm"
   viewBox="0 0 20.0 20.0"
   version="1.1"
   id="svg5"
   sodipodi:docname="átomo simplificado.svg"
   inkscape:version="1.1.1 (3bf5ae0d25, 2021-09-20)"
   xmlns:inkscape="http://www.inkscape.org/namespaces/inkscape"
   xmlns:sodipodi="http://sodipodi.sourceforge.net/DTD/sodipodi-0.dtd"
   xmlns="http://www.w3.org/2000/svg"
   xmlns:svg="http://www.w3.org/2000/svg">
  <sodipodi:namedview
     id="namedview7"
     pagecolor="#505050"
     bordercolor="#eeeeee"
     borderopacity="1"
     inkscape:pageshadow="0"
     inkscape:pageopacity="0"
     inkscape:pagecheckerboard="0"
     inkscape:document-units="mm"
     showgrid="false"
     inkscape:zoom="11.313709"
     inkscape:cx="33.013048"
     inkscape:cy="40.084116"
     inkscape:window-width="3440"
     inkscape:window-height="1369"
     inkscape:window-x="-8"
     inkscape:window-y="247"
     inkscape:window-maximized="1"
     inkscape:current-layer="g35" />
  <defs
     id="defs2" />
  <g
     inkscape:label="[fixed] BG"
     inkscape:groupmode="layer"
     sodipodi:insensitive="true"
     id="g17">
    <rect
       x="0"
       y="0"
       width="20.0"
       height="20.0"
       style="fill:#FFFFFF;fill-opacity:1;stroke:none"
       id="rect15" />
  </g>
  <g
     inkscape:label="Edge.Cuts"
     inkscape:groupmode="layer"
     id="g19" />
  <g
     inkscape:label="B.Cu"
     inkscape:groupmode="layer"
     id="g21" />
  <g
     inkscape:label="B.Mask"
     inkscape:groupmode="layer"
     id="g23" />
  <g
     inkscape:label="B.SilkS"
     inkscape:groupmode="layer"
     id="g25" />
  <g
     inkscape:label="F.Cu"
     inkscape:groupmode="layer"
     id="g27" />
  <g
     inkscape:label="F.Mask"
     inkscape:groupmode="layer"
     id="g29" />
  <g
     inkscape:label="F.SilkS"
     inkscape:groupmode="layer"
     id="g31" />
  <g
     inkscape:label="Dwgs.User"
     inkscape:groupmode="layer"
     id="g33" />
  <g
     inkscape:label="Drill"
     inkscape:groupmode="layer"
     id="g35">
    <path
       id="rect2"
       style="stroke-width:0.0590837"
       d="m 9.0233198,0.61700047 v 0.0587483 0.0596811 0.0587483 0.0587483 0.0596811 0.0587483 0.0587483 0.059681 0.058748 0.058748 h 0.059681 0.058748 0.058748 0.059681 0.058748 0.058748 0.059681 0.058748 0.058748 0.059681 0.058748 0.059681 0.058748 0.058748 0.059681 0.058748 0.058748 0.05968 0.05875 0.05875 0.05968 0.05875 0.05968 0.05876 0.05876 0.05968 0.05876 0.05876 0.05968 0.05876 0.05876 0.05968 0.05876 0.05876 0.05968 0.05876 0.05968 0.05876 0.05875 0.05968 v -0.058747 -0.058749 -0.059681 -0.0587493 -0.0587493 -0.0596811 -0.0587493 -0.0587483 -0.0596811 -0.0587493 h -0.05966 -0.05876 -0.05876 -0.05968 -0.05876 -0.05968 -0.05876 -0.05876 -0.05967 -0.05876 -0.05876 -0.05968 -0.05876 -0.05876 -0.05968 -0.05876 -0.05876 -0.05968 -0.05875 -0.05968 -0.05875 -0.05875 -0.05968 H 9.9688951 9.9101465 9.850465 9.7917164 9.7329678 9.6732862 9.6145376 9.554856 9.4961074 9.4373588 9.3776773 9.3189286 9.26018 9.2004985 9.1417499 9.0830013 Z M 11.387262,1.2072867 v 0.059681 0.058748 0.059681 0.058748 0.058748 0.059681 0.058748 0.058748 0.059681 0.058748 h 0.05876 0.05875 0.05968 0.05875 0.05875 0.05968 0.05875 0.05875 0.05967 0.05875 V 1.7397535 1.680072 1.6213227 1.5625744 1.5028933 1.444144 1.3853947 1.3257136 1.2669642 1.2072831 h -0.05875 -0.05967 -0.05875 -0.05875 -0.05968 -0.05875 -0.05875 -0.05968 -0.05875 z m 0.590287,0.5912189 v 0.058748 0.059681 0.058748 0.058748 0.059681 0.058748 0.059681 0.058748 0.058748 0.059681 0.058748 0.058748 0.059681 0.058748 0.058748 0.059681 0.058748 0.059681 0.058748 0.058748 h 0.05967 0.05875 0.05875 0.05967 0.05875 0.05875 0.05967 0.05875 0.05875 0.05968 V 2.9212618 2.8625128 2.8028314 2.7440824 2.6844011 2.6256521 2.5669033 2.5072218 2.448473 2.389724 2.3300426 2.2712936 2.2125451 2.1528636 2.0941148 2.0344333 1.9756845 1.9169355 1.8572541 1.7985051 h -0.05968 -0.05876 -0.05875 -0.05967 -0.05875 -0.05875 -0.05968 -0.05875 -0.05875 z M 12.568768,2.980011 V 3.039692 3.09844 3.157188 3.216869 3.275617 3.334365 3.394046 3.452794 3.511542 3.571223 3.629971 3.689652 3.7484 3.807148 3.866829 3.925577 3.984325 4.044006 4.102754 4.161502 4.221183 4.279931 4.338679 4.39836 4.457108 4.516789 4.575537 4.634285 4.693967 4.752715 4.811463 4.871144 4.929892 4.98864 5.048321 5.107069 5.16675 5.225498 5.284246 5.343927 h -0.05967 -0.05875 -0.05875 -0.05967 -0.05875 -0.05875 -0.05968 -0.05875 -0.05876 -0.05968 V 5.402675 5.461423 5.521104 5.579852 5.6386 5.698281 5.757029 5.815777 5.875458 5.934206 h 0.05968 0.05875 0.05875 0.05967 0.05875 0.05875 0.05968 0.05875 0.05875 0.05968 V 5.993887 6.052635 6.111383 6.171064 6.229812 6.28856 6.348241 6.406989 6.465737 6.525418 6.584166 6.642914 6.702595 6.761343 6.821024 6.879772 6.93852 6.998201 7.056949 7.115697 7.175378 7.234126 7.292874 7.352555 7.411303 7.470984 7.529732 7.58848 7.648161 7.706909 h -0.05968 -0.05875 -0.05875 -0.05968 -0.05875 -0.05875 -0.05967 -0.05875 -0.05876 -0.05968 v 0.058756 0.059676 0.058756 0.058756 0.059676 0.058756 0.058756 0.059676 0.058756 0.059676 h 0.05968 0.05875 0.05875 0.05967 0.05875 0.05875 0.05968 0.05875 0.05875 0.05967 v 0.058756 0.058756 0.059676 0.058756 0.058756 0.059676 0.058756 0.058756 0.059676 0.058756 h 0.05875 0.05967 0.05875 0.05875 0.05968 0.05875 0.05875 0.05968 0.05875 0.05875 V 8.8297577 8.7700815 8.7113257 8.6525698 8.5928937 8.5341379 8.4753821 8.415706 8.3569502 8.2981943 8.2385181 8.1797623 8.1200862 8.0613304 8.0025745 7.9428984 7.8841426 7.8253868 7.7657107 7.7069645 7.6482152 7.5885339 7.5297848 7.4710365 7.411355 7.3526061 7.2929246 7.2341758 7.1754268 7.1157455 7.0569965 6.9982476 6.9385661 6.8798172 6.8210682 6.7613868 6.7026379 6.6429565 6.5842081 6.5254591 6.4657778 6.4070287 6.3482798 6.2885984 6.2298495 6.1711005 6.1114192 6.0526702 5.9939218 5.9342404 5.8754915 5.81581 5.757061 5.6983121 5.6386307 5.5798818 5.5211328 5.4614514 5.4027024 5.3439535 h 0.05967 0.05876 0.05875 0.05968 0.05875 0.05968 0.05875 0.05876 0.05968 0.05875 0.05875 0.05968 0.05875 0.05875 0.05967 0.05875 0.05875 0.05968 0.05875 0.05968 v -0.059681 -0.058749 -0.058749 -0.059681 -0.058749 -0.059681 -0.058749 -0.058749 -0.059681 -0.058749 h -0.05968 -0.05875 -0.05968 -0.05875 -0.05875 -0.05967 -0.05875 -0.05875 -0.05968 -0.05875 -0.05875 -0.05968 -0.05876 -0.05875 -0.05968 -0.05875 -0.05968 -0.05875 -0.05876 -0.05967 v -0.05875 -0.059681 -0.058749 -0.058749 -0.059681 -0.058749 -0.059681 -0.058749 -0.058749 -0.059681 -0.058749 -0.058749 -0.059681 -0.058749 -0.058749 -0.059682 -0.058749 -0.058749 -0.059681 -0.058749 -0.059681 -0.058749 -0.058749 -0.059681 -0.058749 -0.058749 -0.059681 -0.058749 -0.058749 -0.059681 h -0.05875 -0.05875 -0.05968 -0.05875 -0.05875 -0.05968 -0.05875 -0.05875 -0.05967 z m 1.772725,1.7727237 h 0.05875 0.05876 0.05968 0.05875 0.05875 0.05967 0.05876 0.05874 0.05968 0.05875 0.05967 0.05876 0.05875 0.05968 0.05875 0.05875 0.05968 0.05875 0.05875 0.05968 0.05875 0.05875 0.05967 0.05875 0.05968 0.05875 0.05875 0.05967 0.05875 0.05875 0.05968 0.05875 0.05875 0.05968 0.05875 0.05875 0.05967 0.05875 0.05967 0.05875 v -0.058749 -0.059681 -0.058749 -0.058749 -0.059681 -0.058749 -0.059681 -0.058749 -0.058749 -0.059681 h -0.05875 -0.05967 -0.05875 -0.05967 -0.05875 -0.05875 -0.05968 -0.05875 -0.05875 -0.05968 -0.05875 -0.05875 -0.05967 -0.05875 -0.05875 -0.05968 -0.05875 -0.05967 -0.05875 -0.05875 -0.05968 -0.05875 -0.05875 -0.05968 -0.05875 -0.05875 -0.05968 -0.05875 -0.05876 -0.05967 -0.05875 -0.05968 -0.05874 -0.05876 -0.05967 -0.05875 -0.05875 -0.05968 -0.05876 -0.05875 v 0.059681 0.058748 0.058748 0.059681 0.058748 0.059681 0.058748 0.058748 0.059681 z m 2.363011,0 v 0.058748 0.059681 0.058748 0.058748 0.059681 0.058748 0.059682 0.058748 0.058748 0.059681 h 0.05875 0.05967 0.05875 0.05875 0.05967 0.05875 0.05875 0.05967 0.05875 0.05967 0.05876 0.05875 0.05967 0.05875 0.05875 0.05968 0.05875 0.05875 0.05967 0.05875 v -0.059678 -0.058749 -0.058749 -0.059681 -0.058749 -0.059681 -0.058749 -0.058749 -0.059681 -0.058749 h -0.05875 -0.05967 -0.05875 -0.05875 -0.05968 -0.05875 -0.05875 -0.05967 -0.05875 -0.05876 -0.05967 -0.05875 -0.05967 -0.05875 -0.05875 -0.05967 -0.05875 -0.05875 -0.05967 z m 1.181504,0.5912188 v 0.058748 0.058748 0.059681 0.058748 0.058748 0.059681 0.058748 0.058748 0.059681 0.058748 h 0.05875 0.05968 0.05875 0.05967 0.05875 0.05875 0.05968 0.05875 0.05875 0.05967 v -0.058743 -0.059682 -0.058749 -0.058749 -0.059682 -0.058749 -0.058749 -0.059681 -0.058749 -0.058749 h -0.05967 -0.05875 -0.05875 -0.05968 -0.05875 -0.05875 -0.05967 -0.05875 -0.05968 z m 0.59122,0.5902869 v 0.059681 0.058748 0.058748 0.059681 0.058748 0.058748 0.059681 0.058748 0.058748 0.059681 0.058748 0.058748 0.059681 0.058748 0.059681 0.058748 0.058748 0.059681 0.058748 0.058748 0.059681 0.058748 0.058748 0.059681 0.058748 0.059681 0.058748 0.058748 0.059681 0.058748 0.058756 0.059676 0.058756 0.058756 0.059676 0.058756 0.058756 0.059676 0.058756 0.059676 0.058756 0.058756 0.059676 0.058756 0.058756 0.059676 0.058756 0.058756 0.059676 0.058756 h 0.05875 0.05875 0.05967 0.05875 0.05875 0.05967 0.05875 0.05967 0.05875 0.05875 V 8.8297638 8.7700877 8.7113318 8.652576 8.5928999 8.5341441 8.4753883 8.4157121 8.3569562 8.2982004 8.2385243 8.1797685 8.1200924 8.0613365 8.0025807 7.9429045 7.8841487 7.8253929 7.7657168 7.7069645 7.6482152 7.5885339 7.5297848 7.4710365 7.411355 7.3526061 7.2929246 7.2341758 7.1754268 7.1157455 7.0569965 6.9982476 6.9385661 6.8798172 6.8210682 6.7613868 6.7026379 6.6429565 6.5842081 6.5254591 6.4657778 6.4070287 6.3482798 6.2885984 6.2298495 6.1711005 6.1114192 6.0526702 5.9939218 5.9342404 h -0.05875 -0.05875 -0.05967 -0.05875 -0.05967 -0.05875 -0.05875 -0.05967 -0.05875 z m 0,2.9542287 h -0.05967 -0.05875 -0.05875 -0.05968 -0.05875 -0.05876 -0.05967 -0.05875 -0.05967 -0.05875 v 0.058756 0.059676 0.058756 0.059676 0.058756 0.058756 0.059676 0.058756 0.058756 0.059676 h 0.05875 0.05967 0.05875 0.05967 0.05876 0.05875 0.05968 0.05875 0.05875 0.05967 V 9.4200325 9.3612766 9.3025208 9.2428447 9.1840889 9.1253331 9.0656568 9.006901 8.9472249 Z m -0.59122,0.5912197 h -0.05875 -0.05967 -0.05875 -0.05875 -0.05967 -0.05875 -0.05875 -0.05967 -0.05875 -0.05876 -0.05967 -0.05875 -0.05968 -0.05875 -0.05876 -0.05967 -0.05875 -0.05875 -0.05968 -0.05875 v 0.058756 0.058756 0.059676 0.058756 0.059676 0.058756 0.058756 0.059676 0.058756 0.05876 h 0.05875 0.05968 0.05875 0.05875 0.05967 0.05876 0.05875 0.05968 0.05875 0.05967 0.05876 0.05875 0.05967 0.05875 0.05875 0.05967 0.05875 0.05875 0.05967 0.05875 v -0.05876 -0.058756 -0.059676 -0.058756 -0.058756 -0.059676 -0.058756 -0.059676 -0.058756 z m -1.181504,0.5902862 h -0.05876 -0.05967 -0.05875 -0.05968 -0.05875 -0.05876 -0.05968 -0.05875 -0.05875 -0.05967 -0.05876 -0.05875 -0.05968 -0.05875 -0.05875 -0.05968 -0.05875 -0.05967 -0.05875 -0.05875 v 0.05968 0.05875 0.05876 0.05968 0.05875 0.05876 0.05968 0.05876 0.05968 0.05876 h 0.05875 0.05875 0.05967 0.05875 0.05968 0.05875 0.05875 0.05968 0.05875 0.05876 0.05967 0.05875 0.05875 0.05968 0.05876 0.05875 0.05968 0.05875 0.05967 0.05876 v -0.05875 -0.05968 -0.05875 -0.05968 -0.05875 -0.05876 -0.05968 -0.05876 -0.05876 z m 0,0.591219 v 0.05875 0.05968 0.05875 0.05875 0.05967 0.05875 0.05875 0.05967 0.05875 0.05875 h 0.05875 0.05967 0.05875 0.05875 0.05967 0.05875 0.05875 0.05967 0.05875 0.05967 0.05876 0.05875 0.05967 0.05875 0.05875 0.05968 0.05875 0.05875 0.05967 0.05875 v -0.05875 -0.05875 -0.05967 -0.05875 -0.05875 -0.05967 -0.05875 -0.05875 -0.05968 -0.05875 h -0.05875 -0.05967 -0.05875 -0.05875 -0.05968 -0.05875 -0.05875 -0.05967 -0.05875 -0.05876 -0.05967 -0.05875 -0.05967 -0.05875 -0.05875 -0.05967 -0.05875 -0.05875 -0.05967 z m 1.181504,0.590286 v 0.05968 0.05875 0.05967 0.05875 0.05875 0.05968 0.05875 0.05875 0.05968 0.05875 h 0.05875 0.05968 0.05875 0.05967 0.05875 0.05875 0.05968 0.05875 0.05875 0.05967 v -0.05875 -0.05968 -0.05875 -0.05875 -0.05968 -0.05875 -0.05875 -0.05967 -0.05875 -0.05968 h -0.05967 -0.05875 -0.05875 -0.05968 -0.05875 -0.05875 -0.05967 -0.05875 -0.05968 z m 0.59122,0.59122 v 0.05875 0.05968 0.05875 0.05875 0.05968 0.05875 0.05968 0.05875 0.05875 0.05967 0.05875 0.05875 0.05968 0.05875 0.05875 0.05967 0.05875 0.05968 0.05875 0.05875 0.05968 0.05875 0.05875 0.05967 0.05875 0.05875 0.05968 0.05875 0.05875 0.05968 0.05875 0.05967 0.05875 0.05875 0.05967 0.05875 0.05875 0.05967 0.05875 0.05875 h 0.05875 0.05875 0.05967 0.05875 0.05875 0.05967 0.05875 0.05967 0.05875 0.05875 V 14.14691 14.08816 14.02849 13.96974 13.91099 13.85132 13.79257 13.73382 13.67415 13.6154 13.55572 13.49697 13.43822 13.37854 13.31979 13.26104 13.20137 13.14261 13.08386 13.02418 12.96543 12.90668 12.84701 12.78826 12.72858 12.66983 12.61108 12.5514 12.49265 12.4339 12.37422 12.31547 12.25672 12.19704 12.13829 12.07861 12.01986 11.96111 11.90144 11.84269 h -0.05875 -0.05875 -0.05967 -0.05875 -0.05967 -0.05875 -0.05875 -0.05967 -0.05875 z m 0,2.363009 h -0.05967 -0.05875 -0.05875 -0.05968 -0.05875 -0.05876 -0.05967 -0.05875 -0.05967 -0.05875 v 0.05968 0.05875 0.05876 0.05967 0.05875 0.05967 0.05875 0.05876 0.05968 0.05875 h 0.05875 0.05967 0.05875 0.05967 0.05876 0.05875 0.05968 0.05875 0.05875 0.05967 v -0.05875 -0.05968 -0.05876 -0.05875 -0.05967 -0.05875 -0.05967 -0.05876 -0.05875 z m -0.59122,0.59122 h -0.05875 -0.05967 -0.05875 -0.05875 -0.05967 -0.05875 -0.05875 -0.05967 -0.05875 -0.05876 -0.05967 -0.05875 -0.05968 -0.05875 -0.05876 -0.05967 -0.05875 -0.05875 -0.05968 -0.05875 v -0.05875 -0.05967 -0.05875 -0.05875 -0.05968 -0.05875 -0.05967 -0.05875 -0.05875 -0.05968 h -0.05876 -0.05968 -0.05875 -0.05967 -0.05875 -0.05876 -0.05967 -0.05875 -0.05875 -0.05968 -0.05876 -0.05875 -0.05967 -0.05875 -0.05875 -0.05968 -0.05875 -0.05967 -0.05875 -0.05875 v 0.05968 0.05875 0.05875 0.05967 0.05875 0.05968 0.05875 0.05875 0.05967 0.05875 h -0.05967 -0.05875 -0.05875 -0.05968 -0.05875 -0.05875 -0.05967 -0.05875 -0.05875 -0.05968 v 0.05875 0.05968 0.05875 0.05875 0.05968 0.05875 0.05967 0.05875 0.05875 0.05967 h -0.05875 -0.05968 -0.05874 -0.05875 -0.05967 -0.05875 -0.05875 -0.05968 -0.05875 -0.05875 v 0.05875 0.05875 0.05967 0.05875 0.05875 0.05968 0.05875 0.05876 0.05968 0.05875 h 0.05875 0.05875 0.05968 0.05875 0.05875 0.05967 0.05875 0.05874 0.05968 0.05875 0.05968 0.05875 0.05875 0.05967 0.05875 0.05875 0.05968 0.05875 0.05875 0.05967 v 0.05968 0.05875 0.05876 0.05967 0.05875 0.05875 0.05967 0.05876 0.05875 0.05967 h 0.05875 0.05875 0.05967 0.05875 0.05968 0.05875 0.05875 0.05967 0.05875 0.05876 0.05968 0.05875 0.05875 0.05967 0.05876 0.05875 0.05967 0.05875 0.05968 0.05876 v -0.05967 -0.05875 -0.05876 -0.05967 -0.05875 -0.05875 -0.05967 -0.05876 -0.05875 -0.05968 h 0.05875 0.05968 0.05875 0.05875 0.05967 0.05876 0.05875 0.05968 0.05875 0.05967 v -0.05875 -0.05968 -0.05876 -0.05875 -0.05968 -0.05875 -0.05875 -0.05967 -0.05875 -0.05875 h 0.05876 0.05875 0.05967 0.05875 0.05875 0.05967 0.05875 0.05875 0.05967 0.05875 v -0.05967 -0.05875 -0.05875 -0.05967 -0.05875 -0.05968 -0.05875 -0.05875 -0.05968 z m -3.544515,0.59122 v -0.05968 -0.05875 -0.05875 -0.05968 -0.05875 -0.05967 -0.05875 -0.05875 -0.05968 -0.05875 h -0.05968 -0.05875 -0.05967 -0.05876 -0.05875 -0.05967 -0.05875 -0.05875 -0.05967 -0.05875 -0.05875 -0.05967 -0.05875 -0.05875 -0.05968 -0.05875 -0.05968 -0.05875 -0.05875 -0.05967 v -0.05876 -0.05967 -0.05875 -0.05875 -0.05968 -0.05876 -0.05968 -0.05875 -0.05875 -0.05967 -0.05876 -0.05875 -0.05968 -0.05875 -0.05875 -0.05967 -0.05875 -0.05875 -0.05968 -0.05875 -0.05968 -0.05875 -0.05875 -0.05975 -0.05875 -0.05876 -0.05967 -0.05875 -0.05875 -0.05968 -0.05876 -0.05875 -0.05968 -0.05875 -0.05967 -0.05876 -0.05875 -0.05968 -0.05875 -0.05875 -0.05967 -0.05875 -0.05875 -0.05968 -0.05875 -0.05968 -0.05875 -0.05875 -0.05968 -0.05875 h -0.0588 -0.05875 -0.05968 -0.05875 -0.05876 -0.05967 -0.05875 -0.05875 -0.05968 -0.05876 -0.05968 -0.05875 -0.05875 -0.05967 -0.05876 -0.05875 -0.05967 -0.05875 -0.05875 -0.05967 v 0.05875 0.05968 0.05875 0.05875 0.05968 0.05875 0.05968 0.05875 0.05875 0.05967 h 0.05967 0.05875 0.05875 0.05967 0.05875 0.05875 0.05968 0.05875 0.05875 0.05967 v 0.05875 0.05875 0.05968 0.05875 0.05875 0.05967 0.05875 0.05968 0.05875 0.05875 0.05968 0.05875 0.05875 0.05968 0.05875 0.05875 0.05968 0.05875 0.05875 0.05967 0.05875 0.05967 0.05875 0.05875 0.05967 0.05875 0.05875 0.05967 0.05875 0.05876 h -0.05967 -0.05875 -0.05875 -0.05968 -0.05876 -0.05875 -0.05967 -0.05875 -0.05875 -0.05968 v 0.05968 0.05875 0.05875 0.05968 0.05876 0.05968 0.05875 0.05875 0.05967 0.05876 h 0.05968 0.05875 0.05875 0.05967 0.05875 0.05875 0.05968 0.05875 0.05875 0.05968 v 0.05875 0.05968 0.05875 0.05875 0.05967 0.05875 0.05967 0.05875 0.05875 0.05968 0.05875 0.05875 0.05968 0.05875 0.05875 0.05967 0.05875 0.05875 0.05968 0.05875 0.05967 0.05875 0.05875 0.05967 0.05875 0.05875 0.05967 0.05875 0.05875 0.05968 0.05875 0.05876 0.05967 0.05875 0.05967 0.05875 0.05876 0.05967 0.05875 0.05875 h 0.05875 0.05967 0.05875 0.05875 0.05968 0.05875 0.05875 0.05967 0.05875 0.05875 v -0.05875 -0.05875 -0.05967 -0.05876 -0.05875 -0.05967 -0.05875 -0.05967 -0.05876 -0.05875 -0.05968 -0.05875 -0.05875 -0.05967 -0.05875 -0.05875 -0.05967 -0.05875 -0.05875 -0.05967 -0.05875 -0.05968 -0.05875 -0.05875 -0.05967 -0.05875 -0.05875 -0.05968 -0.05875 -0.05875 h 0.05968 0.05875 0.05875 0.05967 0.05875 0.05968 0.05875 0.05875 0.05967 0.05875 0.05875 0.05968 0.05875 0.05875 0.05967 0.05875 0.05876 0.05968 0.05875 z m -1.772725,1.77179 h -0.05967 -0.05875 -0.05875 -0.05967 -0.05875 -0.05875 -0.05968 -0.05875 -0.05876 -0.05968 v 0.05967 0.05876 0.05875 0.05967 0.05875 0.05967 0.05876 0.05875 0.05968 0.05875 0.05875 0.05967 0.05875 0.05875 0.05967 0.05875 0.05875 0.05968 0.05875 0.05967 h 0.05968 0.05875 0.05875 0.05967 0.05875 0.05875 0.05968 0.05875 0.05875 0.05968 v -0.05967 -0.05875 -0.05968 -0.05875 -0.05875 -0.05967 -0.05875 -0.05875 -0.05967 -0.05875 -0.05875 -0.05968 -0.05875 -0.05876 -0.05967 -0.05875 -0.05967 -0.05875 -0.05876 z m -0.591219,1.182438 h -0.05875 -0.05968 -0.05875 -0.05875 -0.05968 -0.05875 -0.05875 -0.05967 -0.05875 -0.05876 v 0.05875 0.05875 0.05967 0.05875 0.05875 0.05967 0.05875 0.05875 0.05968 0.05875 h 0.05876 0.05875 0.05967 0.05875 0.05875 0.05968 0.05875 0.05875 0.05968 0.05875 v -0.05875 -0.05968 -0.05875 -0.05875 -0.05967 -0.05875 -0.05875 -0.05967 -0.05875 z m -0.590287,0.590287 h -0.05968 -0.05876 -0.05876 -0.05968 -0.05876 -0.05968 -0.05876 -0.05876 -0.05968 -0.05876 -0.05876 -0.05968 -0.05876 -0.05876 -0.05968 -0.05876 -0.05876 -0.05968 -0.05875 -0.05968 -0.05875 -0.05875 -0.05968 -0.058749 -0.058749 -0.059681 -0.058749 -0.058749 -0.059681 -0.058749 -0.059682 -0.058749 -0.058749 -0.059682 -0.058749 -0.058749 -0.059682 -0.058749 -0.058749 -0.059681 v 0.05875 0.05968 0.05875 0.05967 0.05875 0.05875 0.05968 0.05875 0.05875 0.05967 h 0.059681 0.058748 0.058748 0.059681 0.058748 0.058748 0.059681 0.058748 0.058748 0.059681 0.058748 0.059681 0.058748 0.058748 0.059681 0.058748 0.058748 0.05968 0.05875 0.05875 0.05968 0.05875 0.05968 0.05876 0.05876 0.05968 0.05876 0.05876 0.05968 0.05876 0.05876 0.05968 0.05875 0.05876 0.05968 0.05875 0.05968 0.05876 0.05876 0.05968 v -0.05967 -0.05875 -0.05875 -0.05968 -0.05875 -0.05875 -0.05967 -0.05875 -0.05968 z m -2.3639422,0 v -0.05875 -0.05967 -0.05875 -0.05876 -0.05967 -0.05875 -0.05875 -0.05968 -0.05876 -0.05875 h -0.058749 -0.058749 -0.059682 -0.058749 -0.059681 -0.058749 -0.058749 -0.059682 -0.058749 -0.058749 v 0.05875 0.05876 0.05968 0.05875 0.05875 0.05967 0.05876 0.05875 0.05967 0.05875 h 0.058748 0.058748 0.059681 0.058748 0.058748 0.059681 0.058748 0.059681 0.058748 z M 8.4330334,18.342377 v -0.05968 -0.05875 -0.05967 -0.05875 -0.05875 -0.05968 -0.05875 -0.05876 -0.05967 -0.05875 -0.05875 -0.05967 -0.05876 -0.05875 -0.05968 -0.05875 -0.05968 -0.05876 -0.05875 -0.05967 h -0.059681 -0.058749 -0.058748 -0.059681 -0.058749 -0.058749 -0.059681 -0.058749 -0.059681 -0.058749 v 0.05967 0.05875 0.05876 0.05968 0.05875 0.05968 0.05875 0.05876 0.05967 0.05875 0.05875 0.05967 0.05876 0.05875 0.05968 0.05875 0.05875 0.05967 0.05875 0.05968 h 0.058748 0.059681 0.058748 0.059681 0.058748 0.058748 0.059681 0.058748 0.058748 z M 7.8418147,17.159939 v -0.05875 -0.05875 -0.05967 -0.05876 -0.05875 -0.05967 -0.05875 -0.05967 -0.05876 -0.05875 -0.05967 -0.05875 -0.05875 -0.05968 -0.05875 -0.05875 -0.05968 -0.05875 -0.05875 -0.05968 -0.05875 -0.05968 -0.05875 -0.05875 -0.05968 -0.05875 -0.05875 -0.05967 -0.05875 -0.05875 -0.05968 -0.05875 -0.05875 -0.05967 -0.05875 -0.05968 -0.05875 -0.05875 -0.05967 -0.05875 h 0.058748 0.059681 0.058748 0.059681 0.058748 0.058748 0.059681 0.058748 0.058748 0.059681 v -0.05876 -0.05967 -0.05875 -0.05875 -0.05967 -0.05876 -0.05968 -0.05875 -0.05875 -0.05968 h -0.059677 -0.058749 -0.058748 -0.059681 -0.058749 -0.058749 -0.059681 -0.058749 -0.059681 -0.058749 v -0.05876 -0.05875 -0.05968 -0.05875 -0.05875 -0.05968 -0.05875 -0.05875 -0.05967 -0.05875 -0.05967 -0.05876 -0.05875 -0.05968 -0.05875 -0.05875 -0.05967 -0.05875 -0.05875 -0.05968 -0.05875 -0.05875 -0.05968 -0.05875 -0.05967 -0.05875 -0.05875 -0.05968 -0.05875 -0.05875 h 0.058748 0.059681 0.058748 0.059681 0.058748 0.058748 0.059681 0.058748 0.058748 0.059681 v -0.05982 -0.05875 -0.05875 -0.05967 -0.05875 -0.05968 -0.05875 -0.05875 -0.05967 -0.05875 h -0.059677 -0.058749 -0.058748 -0.059681 -0.058749 -0.058749 -0.059681 -0.058749 -0.059681 -0.058749 -0.058749 -0.059681 -0.058749 -0.058749 -0.059681 -0.058749 -0.058749 -0.059681 -0.058749 -0.059681 v 0.05875 0.05967 0.05875 0.05875 0.05968 0.05875 0.05967 0.05875 0.05875 0.05968 0.05875 0.05875 0.05968 0.05875 0.05875 0.05968 0.05875 0.05967 0.05875 0.05875 0.05968 0.05875 0.05875 0.05967 0.05875 0.05875 0.05967 0.05875 0.05876 0.05968 0.05875 0.05967 0.05875 0.05875 0.05967 0.05875 0.05875 0.05967 0.05875 0.05876 0.05967 0.05875 0.05875 0.05968 0.05876 0.05968 0.05875 0.05875 0.05967 0.05876 h -0.058749 -0.058749 -0.059681 -0.058749 -0.058749 -0.059681 -0.058749 -0.058749 -0.059681 -0.058749 -0.058749 -0.059681 -0.058749 -0.059681 -0.058749 -0.058749 -0.059681 -0.058749 -0.058749 -0.059681 v 0.05875 0.05968 0.05875 0.05875 0.05967 0.05875 0.05968 0.05875 0.05875 0.05968 h 0.059681 0.058748 0.058748 0.059681 0.058748 0.058748 0.059681 0.058748 0.059681 0.058748 0.058748 0.059681 0.058748 0.058748 0.059681 0.058748 0.058748 0.059681 0.058748 0.058748 v 0.05875 0.05875 0.05968 0.05875 0.05875 0.05967 0.05875 0.05875 0.05968 0.05875 0.05967 0.05875 0.05875 0.05968 0.05875 0.05875 0.05967 0.05875 0.05875 0.05967 0.05875 0.05876 0.05967 0.05875 0.05968 0.05875 0.05876 0.05968 0.05875 0.05875 h 0.059681 0.058748 0.059681 0.058748 0.058748 0.059681 0.058748 0.058748 0.059681 z m -1.7727244,-1.77179 h -0.058749 -0.058748 -0.059681 -0.058749 -0.058749 -0.059681 -0.058749 -0.059681 -0.058749 -0.058749 v -0.05968 -0.05875 -0.05875 -0.05968 -0.05875 -0.05967 -0.05875 -0.05875 -0.05968 -0.05875 h -0.059683 -0.058749 -0.058749 -0.059681 -0.058749 -0.058749 -0.059682 -0.058749 -0.059682 -0.058749 v -0.05876 -0.05967 -0.05875 -0.05875 -0.05968 -0.05876 -0.05968 -0.05875 -0.05875 -0.05967 h -0.05875 -0.059681 -0.058749 -0.058749 -0.059682 -0.058749 -0.058748 -0.059681 -0.058749 -0.058749 -0.059681 -0.058749 -0.059681 -0.058749 -0.058749 -0.059681 -0.058749 -0.058749 -0.059681 -0.058749 v 0.05967 0.05875 0.05875 0.05968 0.05876 0.05968 0.05875 0.05875 0.05967 0.05876 h -0.058749 -0.059681 -0.058749 -0.058749 -0.059682 -0.058749 -0.059681 -0.058749 -0.058749 -0.059681 -0.058749 -0.058749 -0.059682 -0.058749 -0.058749 -0.059681 -0.058749 -0.058749 v 0.05875 0.05968 0.05875 0.05875 0.05967 0.05875 0.05968 0.05875 0.05875 0.05968 h 0.058748 0.058748 0.059681 0.058748 0.058748 0.059681 0.058748 0.058748 v 0.05875 0.05875 0.05968 0.05875 0.05875 0.05967 0.05875 0.05875 0.05968 0.05875 h 0.059681 0.058748 0.058748 0.059681 0.058748 0.059681 0.058748 0.058748 0.059681 0.058748 v 0.05967 0.05875 0.05875 0.05968 0.05875 0.05875 0.05967 0.05875 0.05875 0.05967 h 0.058748 0.059681 0.058748 0.058748 0.059681 0.058748 0.058748 0.059681 0.058748 0.059681 0.058748 0.058748 0.059681 0.058748 0.058748 0.059681 0.058748 0.058748 0.059681 0.058748 v -0.05967 -0.05875 -0.05875 -0.05967 -0.05875 -0.05875 -0.05968 -0.05875 -0.05875 -0.05967 h 0.058748 0.059681 0.058748 0.059681 0.058748 0.058748 0.059681 0.058748 0.058748 0.059681 0.058748 0.058748 0.059681 0.058748 0.059681 0.058748 0.058748 0.059681 0.058748 0.058748 v -0.05875 -0.05968 -0.05875 -0.05875 -0.05967 -0.05875 -0.05875 -0.05968 -0.05875 z M 7.250596,11.8427 V 11.78395 11.72428 11.66553 11.60678 11.5471 11.48835 11.4296 11.36993 11.31118 11.2515 H 7.191847 7.133098 7.073417 7.014668 6.955919 6.896238 6.837489 6.77874 6.719059 6.66031 6.601561 6.54188 6.483131 6.42345 6.364701 6.305952 6.246271 6.187522 6.128773 6.069092 v 0.05968 0.05875 0.05967 0.05875 0.05875 0.05968 0.05875 0.05875 0.05967 0.05875 H 6.128773 6.187521 6.246269 6.30595 6.364698 6.423446 6.483127 6.541875 6.601556 6.660304 6.719052 6.778733 6.837481 6.896229 6.95591 7.014658 7.073406 7.133087 7.191835 Z M 6.0690903,11.25148 V 11.19273 11.13398 11.0743 11.01555 10.9568 10.89712 10.83837 10.77962 10.71994 10.66119 h -0.058749 -0.058748 -0.059681 -0.058749 -0.058749 -0.059681 -0.058749 -0.059681 -0.058749 -0.058749 -0.059681 -0.058749 -0.058749 -0.059681 -0.058749 -0.058749 -0.059681 -0.058749 -0.059681 -0.058749 v 0.05875 0.05968 0.05875 0.05875 0.05968 0.05875 0.05875 0.05968 0.05875 0.05875 h 0.058748 0.059681 0.058748 0.059681 0.058748 0.058748 0.059682 0.058748 0.058748 0.059681 0.058748 0.058748 0.059681 0.058748 0.059681 0.058748 0.058748 0.059681 0.058748 z M 4.8875852,10.661194 v -0.05876 -0.05968 -0.05876 -0.05968 -0.05876 -0.05876 -0.05968 -0.05876 -0.05876 -0.05968 H 4.8288363 4.7691549 4.710406 4.6516572 4.5919756 4.5332268 4.4744783 4.4147968 4.3560479 4.2972989 4.2376176 4.1788686 4.1191873 4.0604382 4.0016894 3.9420079 3.8832591 3.8245105 3.7648291 3.7060802 v 0.05968 0.05876 0.05875 0.05968 0.05876 0.05876 0.05967 0.05876 0.05968 0.05876 h 0.058748 0.059681 0.058748 0.058748 0.059681 0.058748 0.058748 0.059681 0.058748 0.059681 0.058748 0.058748 0.059681 0.058748 0.058748 0.059682 0.058748 0.058748 0.059681 z m -1.181505,0 h -0.058749 -0.059681 -0.058749 -0.058749 -0.059682 -0.058749 -0.059681 -0.058749 -0.058749 -0.059681 -0.058749 -0.058749 -0.059682 -0.058749 -0.058749 -0.059681 -0.058749 -0.058749 v 0.05875 0.05968 0.05875 0.05875 0.05967 0.05875 0.05875 0.05967 0.05875 0.05875 h 0.058748 0.058748 0.059681 0.058748 0.058748 0.059681 0.058748 0.058748 0.059681 0.058748 0.058748 0.059681 0.058748 0.059681 0.058748 0.058748 0.059681 0.058748 v -0.05875 -0.05875 -0.05967 -0.05875 -0.05875 -0.05967 -0.05875 -0.05875 -0.05968 z m 0,-0.591219 V 10.01122 9.9524638 9.8927876 9.8340318 9.7752759 9.7155998 9.656844 9.5971679 9.5384121 9.4796563 h -0.058749 -0.059681 -0.058749 -0.058749 -0.059682 -0.058749 -0.059681 -0.058749 -0.058749 -0.059681 -0.058749 -0.058749 -0.059682 -0.058749 -0.058749 -0.059681 -0.058749 -0.058749 v 0.058756 0.058756 0.059676 0.058756 0.059676 0.058756 0.058756 0.059676 0.058756 0.05876 h 0.058748 0.058748 0.059681 0.058748 0.058748 0.059681 0.058748 0.058748 0.059681 0.058748 0.058748 0.059681 0.058748 0.059681 0.058748 0.058748 0.059681 z m 1.181505,0 h 0.058748 0.059681 0.058748 0.059681 0.058748 0.058748 0.059682 0.058748 0.058748 0.059681 0.058748 0.058748 0.059681 0.058748 0.059681 0.058748 0.058748 0.059681 0.058748 0.058748 V 10.01122 9.9524638 9.8927876 9.8340318 9.7752759 9.7155998 9.656844 9.5971679 9.5384121 9.4796563 h -0.05874 -0.058748 -0.059681 -0.058749 -0.058749 -0.059681 -0.058749 -0.059681 -0.058749 -0.058749 -0.059681 -0.058749 -0.058749 -0.059681 -0.058749 -0.058749 -0.059681 -0.058749 -0.059681 -0.058749 v 0.058756 0.058756 0.059676 0.058756 0.059676 0.058756 0.058756 0.059676 0.058756 z M 6.0690903,9.4796888 h 0.059681 0.058748 0.058748 0.059681 0.058748 0.058748 0.059681 0.058748 0.059681 0.058748 0.058748 0.059681 0.058748 0.058748 0.059681 0.058748 0.058748 0.059681 0.058748 0.058748 V 9.4200126 9.3612567 9.3025009 9.2428248 9.184069 9.1253132 9.065637 9.0068812 8.947205 8.8884492 h -0.058739 -0.058749 -0.059681 -0.058749 -0.058749 -0.059681 -0.058749 -0.058749 -0.059681 -0.058749 -0.058749 -0.059681 -0.058749 -0.059681 -0.058749 -0.058749 -0.059681 -0.058749 -0.058749 -0.059681 v 0.058756 0.059676 0.058756 0.059676 0.058756 0.058756 0.059676 0.058756 0.058756 z M 7.250596,8.8884691 H 7.310277 7.369025 7.428706 7.487454 7.546202 7.605883 7.664631 7.723379 7.78306 7.841808 V 8.8297131 8.7700371 8.7112811 8.6525251 8.5928491 8.5340931 8.4753371 8.4156611 8.3569051 8.2981491 H 7.900556 7.960237 8.018985 8.078666 8.137414 8.196162 8.255843 8.314591 8.373339 8.43302 V 8.2384738 8.179718 8.1200419 8.0612859 8.0025301 7.942854 7.8840982 7.8253424 7.7656662 7.7069104 H 8.3733521 8.3146031 8.2558547 8.1961733 8.1374244 8.0786753 8.018994 7.960245 7.9005637 7.8418147 V 7.6482152 7.5885339 7.5297848 7.4710365 7.411355 7.3526061 7.2929246 7.2341758 7.1754268 7.1157455 7.0569965 6.9982476 6.9385661 6.8798172 6.8210682 6.7613868 6.7026379 6.6429565 6.5842081 6.5254591 6.4657778 6.4070287 6.3482798 6.2885984 6.2298495 6.1711005 6.1114192 6.0526702 5.9939218 5.9342404 h 0.058748 0.059681 0.058748 0.059681 0.058748 0.058748 0.059681 0.058748 0.058748 0.059681 v -0.058749 -0.059681 -0.058749 -0.058749 -0.059681 -0.058749 -0.058749 -0.059681 -0.058749 -0.058749 h -0.059677 -0.058749 -0.058748 -0.059681 -0.058749 -0.058749 -0.059681 -0.058749 -0.059681 -0.058749 v -0.059681 -0.058749 -0.058749 -0.059681 -0.058749 -0.059681 -0.058749 -0.058749 -0.059681 -0.058749 -0.058749 -0.059681 -0.058749 -0.058749 -0.059681 -0.058749 -0.059681 -0.058749 -0.058749 -0.059681 h 0.058748 0.059681 0.058748 0.059681 0.058748 0.058748 0.059681 0.058748 0.058748 0.059681 V 4.1027674 4.0440188 3.9843373 3.9255886 3.86684 3.8071586 3.7484099 3.6896613 3.6299798 3.5712312 h 0.058748 0.058748 0.059681 0.058748 0.058748 0.059681 0.058748 0.059681 0.058748 0.058748 V 3.5115484 3.4527994 3.3940505 3.334369 3.2756201 3.2168713 3.1571898 3.098441 3.0396923 2.980011 2.921262 2.8625131 2.8028316 2.7440827 2.6844013 2.6256524 2.5669036 2.5072221 2.4484733 2.3897243 H 8.9645627 8.9058145 8.8461333 8.787384 8.7277029 8.6689536 8.6102042 8.5505231 8.4917738 8.4330245 v -0.059681 -0.058749 -0.058748 -0.059682 -0.058749 -0.059681 -0.058749 -0.058749 -0.059681 -0.058749 h -0.059672 -0.058749 -0.058748 -0.059681 -0.058749 -0.058749 -0.059681 -0.058749 -0.059681 -0.058749 -0.058749 -0.059681 -0.058749 -0.058749 -0.059681 -0.058749 -0.058749 -0.059681 -0.058749 -0.059681 v 0.058748 0.059681 0.058748 0.058748 0.059681 0.058748 0.059681 0.058748 0.058748 0.059681 h -0.058749 -0.058749 -0.059681 -0.058749 -0.058749 -0.059682 -0.058749 -0.058749 -0.059682 -0.058749 v 0.058748 0.058748 0.059681 0.058748 0.058748 0.059681 0.058748 0.059681 0.058748 0.058748 0.059681 0.058748 0.058748 0.059681 0.058748 0.058748 0.059681 0.058748 0.058748 0.059681 h 0.058748 0.059681 0.058748 0.058748 0.059681 0.058748 0.058748 0.059681 0.058748 0.058748 v 0.058748 0.059681 0.058748 0.058748 0.059681 0.058748 0.058748 0.059681 0.058748 0.058748 0.059681 0.058748 0.058748 0.059681 0.058748 0.059682 0.058748 0.058748 0.059681 0.058748 h -0.058745 -0.058749 -0.059681 -0.058749 -0.058749 -0.059681 -0.058749 -0.058749 -0.059681 -0.058749 -0.058749 -0.059681 -0.058749 -0.059681 -0.058749 -0.058749 -0.059681 -0.058749 -0.058749 -0.059681 v 0.058748 0.059682 0.058748 0.058748 0.059681 0.058748 0.059681 0.058748 0.058748 0.059681 h 0.059681 0.058748 0.058748 0.059681 0.058748 0.058748 0.059681 0.058748 0.059681 0.058748 0.058748 0.059681 0.058748 0.058748 0.059681 0.058748 0.058748 0.059681 0.058748 0.058748 v 0.058748 0.058748 0.059681 0.058748 0.058748 0.059681 0.058748 0.058748 0.059681 0.058748 0.059681 0.058748 0.058748 0.059681 0.058748 0.058748 0.059681 0.058748 0.058748 0.059682 0.058748 0.058748 0.059681 0.058748 0.059681 0.058748 0.058748 0.059681 0.058748 0.058748 0.059681 0.058748 0.058748 0.059681 0.058748 0.059681 0.058748 0.058748 0.059681 0.058748 0.058756 0.059676 0.058756 0.058756 0.059676 0.058756 0.058756 0.059676 0.058756 0.059676 0.058756 0.058756 0.059676 0.058756 0.058756 0.059676 0.058756 0.058756 0.059676 z M 6.0690903,4.7527347 V 4.6939858 4.6343044 4.5755555 4.516807 4.4571257 4.3983767 4.3386953 4.2799463 4.2211974 4.161516 H 6.0103413 5.9515929 5.8919116 5.8331626 5.7744136 5.7147323 5.6559833 5.5963019 5.5375529 5.478804 5.4191226 5.3603737 5.3016252 5.2419439 5.1831949 5.1244459 5.0647645 5.0060155 4.9463342 4.8875852 4.8288363 4.7691549 4.710406 4.6516572 4.5919756 4.5332268 4.4744783 4.4147968 4.3560479 4.2972989 4.2376176 4.1788686 4.1191873 4.0604382 4.0016894 3.9420079 3.8832591 3.8245105 3.7648291 3.7060802 V 4.221197 4.279945 4.338693 4.398374 4.457122 4.516803 4.575551 4.634299 4.69398 4.752728 h 0.058748 0.059681 0.058748 0.058748 0.059681 0.058748 0.058748 0.059681 0.058748 0.059681 0.058748 0.058748 0.059681 0.058748 0.058748 0.059682 0.058748 0.058748 0.059681 0.058748 0.058748 0.059681 0.058748 0.059681 0.058748 0.058748 0.059681 0.058748 0.058748 0.059681 0.058748 0.058748 0.059682 0.058748 0.059681 0.058748 0.058748 0.059681 0.058748 z m -2.3630101,0 h -0.058749 -0.059681 -0.058749 -0.058749 -0.059682 -0.058749 -0.059681 -0.058749 -0.058749 -0.059681 -0.058749 -0.058749 -0.059682 -0.058749 -0.058749 -0.059681 -0.058749 -0.058749 v 0.058748 0.059681 0.058748 0.058748 0.059681 0.058748 0.059682 0.058748 0.058748 0.059681 h 0.058748 0.058748 0.059681 0.058748 0.058748 0.059681 0.058748 0.058748 0.059681 0.058748 0.058748 0.059681 0.058748 0.059681 0.058748 0.058748 0.059681 0.058748 V 5.2842721 5.2255232 5.1667747 5.1070934 5.0483444 4.9886631 4.9299141 4.871165 4.8114837 Z M 8.4330334,1.7985056 h 0.058748 0.058748 0.059681 0.058748 0.058748 0.059681 0.058748 0.059681 0.058748 0.058748 v -0.058749 -0.059681 -0.058749 -0.058748 -0.059681 -0.058749 -0.058749 -0.059681 -0.058749 -0.059681 h -0.058748 -0.058748 -0.059681 -0.058748 -0.059681 -0.058748 -0.058748 -0.059681 -0.058748 -0.058748 v 0.059681 0.058748 0.059681 0.058748 0.058748 0.059681 0.058748 0.058748 0.059681 z m 0,4.1357348 v 0.059681 0.058748 0.058748 0.059681 0.058748 0.058748 0.059681 0.058748 0.058748 0.059681 h 0.058748 0.058748 0.059681 0.058748 0.058748 0.059681 0.058748 0.059681 0.058748 0.058748 0.059681 0.058748 0.058748 0.059681 0.058748 0.058748 0.059681 0.058748 0.058748 0.059681 V 6.4657778 6.4070287 6.3482798 6.2885984 6.2298495 6.1711005 6.1114192 6.0526702 5.9939218 5.9342404 H 9.5548571 9.4961078 9.4373595 9.3776784 9.318929 9.2601797 9.2004986 9.1417493 9.083 9.0233188 8.9645695 8.9058212 8.8461401 8.7873919 8.7277108 8.6689625 8.6102132 8.550532 8.4917827 Z m 1.1815054,0.5912187 v 0.058748 0.058748 0.059681 0.058748 0.059681 0.058748 0.058748 0.059681 0.058748 0.058748 h 0.058748 0.059681 0.058748 0.058748 0.059681 0.058748 0.058748 0.05968 0.05875 0.05875 0.05968 0.05875 0.05968 0.05876 0.05876 0.05968 0.05876 0.05876 0.05968 0.05876 v -0.058742 -0.058749 -0.059681 -0.058749 -0.058749 -0.059681 -0.058749 -0.059681 -0.058748 -0.058749 h -0.05875 -0.05968 -0.05876 -0.05876 -0.05968 -0.05876 -0.05876 -0.05968 -0.05875 -0.05968 -0.05875 -0.05875 -0.05968 -0.058749 -0.058749 -0.059682 -0.058749 -0.058749 -0.059682 z m 1.1815052,0 h 0.05876 0.05968 0.05876 0.05875 0.05968 0.05876 0.05968 0.05875 0.05876 0.05968 0.05875 0.05875 0.05968 0.05875 0.05875 0.05967 0.05875 0.05875 0.05968 0.05875 V 6.465778 6.4070286 6.3482793 6.2885982 6.2298489 6.1710995 6.1114184 6.0526691 5.9939208 5.9342397 h -0.05875 -0.05968 -0.05875 -0.05875 -0.05967 -0.05875 -0.05875 -0.05968 -0.05875 -0.05875 -0.05968 -0.05876 -0.05875 -0.05968 -0.05876 -0.05968 -0.05875 -0.05876 -0.05968 -0.05876 v 0.059681 0.058748 0.058748 0.059681 0.058748 0.058748 0.059681 0.058748 0.058748 z m 0,0.5902864 v 0.059681 0.058748 0.058748 0.059681 0.058748 0.059681 0.058748 0.058748 0.059681 0.058748 h 0.05876 0.05968 0.05876 0.05875 0.05968 0.05876 0.05968 0.05875 0.05876 0.05968 0.05875 0.05875 0.05968 0.05875 0.05875 0.05967 0.05875 0.05875 0.05968 0.05875 V 7.6482147 7.5885331 7.5297845 7.4710359 7.4113544 7.3526057 7.2929242 7.2341756 7.175427 7.1157455 h -0.05875 -0.05968 -0.05875 -0.05875 -0.05967 -0.05875 -0.05875 -0.05968 -0.05875 -0.05875 -0.05968 -0.05876 -0.05875 -0.05968 -0.05876 -0.05968 -0.05875 -0.05876 -0.05968 z m -1.1815052,0 H 9.5548575 9.4961085 9.4373597 9.3776782 9.3189294 9.2601805 9.200499 9.1417501 9.0830011 9.0233198 8.9645708 8.9058224 8.8461408 8.787392 8.7277104 8.6689616 8.6102127 8.5505313 8.4917824 8.4330334 v 0.059681 0.058748 0.058748 0.059681 0.058748 0.059681 0.058748 0.058748 0.059681 0.058748 h 0.058748 0.058748 0.059681 0.058748 0.058748 0.059681 0.058748 0.059681 0.058748 0.058748 0.059681 0.058748 0.058748 0.059681 0.058748 0.058748 0.059681 0.058748 0.058748 0.059681 V 7.6482152 7.5885339 7.5297848 7.4710365 7.411355 7.3526061 7.2929246 7.2341758 7.1754268 Z M 7.250596,9.4796888 v 0.058756 0.058756 0.059676 0.058756 0.059676 0.058756 0.058756 0.059676 0.058756 0.05876 0.05968 0.05876 0.05876 0.05967 0.05876 0.05876 0.05968 0.05875 0.05968 0.05876 0.05876 0.05968 0.05875 0.05875 0.05967 0.05875 0.05875 0.05968 0.05875 0.05875 H 7.310277 7.369025 7.428706 7.487454 7.546202 7.605883 7.664631 7.723379 7.78306 7.841808 v -0.05875 -0.05875 -0.05968 -0.05875 -0.05875 -0.05967 -0.05875 -0.05875 -0.05968 -0.05876 -0.05876 -0.05968 -0.05876 -0.05968 -0.05876 -0.05876 -0.05968 -0.05876 -0.05876 -0.05968 -0.05876 -0.058756 -0.059676 -0.058756 -0.058756 -0.059676 -0.058756 -0.059676 -0.058756 -0.058756 H 7.783064 7.723383 7.664634 7.605885 7.546204 7.487455 7.428706 7.369025 7.310276 Z m 1.1824374,2.9542292 v 0.05875 0.05875 0.05968 0.05875 0.05875 0.05967 0.05875 0.05967 0.05875 0.05875 h 0.058748 0.058748 0.059681 0.058748 0.058748 0.059681 0.058748 0.059681 0.058748 0.058748 0.059681 0.058748 0.058748 0.059681 0.058748 0.058748 0.059681 0.058748 0.058748 0.059681 v -0.05875 -0.05875 -0.05967 -0.05875 -0.05967 -0.05876 -0.05875 -0.05968 -0.05875 -0.05875 H 9.5548571 9.4961078 9.4373595 9.3776784 9.318929 9.2601797 9.2004986 9.1417493 9.083 9.0233188 8.9645695 8.9058212 8.8461401 8.7873919 8.7277108 8.6689625 8.6102132 8.550532 8.4917827 Z m 1.1815054,0.590287 v 0.05967 0.05875 0.05875 0.05968 0.05875 0.05875 0.05967 0.05875 0.05875 0.05967 h 0.058748 0.059681 0.058748 0.058748 0.059681 0.058748 0.058748 0.05968 0.05875 0.05875 0.05968 0.05875 0.05968 0.05876 0.05876 0.05968 0.05876 0.05876 0.05968 0.05876 v -0.05967 -0.05875 -0.05875 -0.05967 -0.05875 -0.05875 -0.05968 -0.05875 -0.05875 -0.05967 h -0.05875 -0.05968 -0.05876 -0.05876 -0.05968 -0.05876 -0.05876 -0.05968 -0.05875 -0.05968 -0.05875 -0.05875 -0.05968 -0.058749 -0.058749 -0.059682 -0.058749 -0.058749 -0.059682 z m 1.1815052,0 h 0.05876 0.05968 0.05876 0.05875 0.05968 0.05876 0.05968 0.05875 0.05876 0.05968 0.05875 0.05875 0.05968 0.05875 0.05875 0.05967 0.05875 0.05875 0.05968 0.05875 v -0.05875 -0.05875 -0.05968 -0.05875 -0.05968 -0.05875 -0.05875 -0.05968 -0.05875 -0.05875 h -0.05875 -0.05968 -0.05875 -0.05875 -0.05967 -0.05875 -0.05875 -0.05968 -0.05875 -0.05875 -0.05968 -0.05876 -0.05875 -0.05968 -0.05876 -0.05968 -0.05875 -0.05876 -0.05968 -0.05876 v 0.05875 0.05875 0.05968 0.05875 0.05875 0.05968 0.05875 0.05968 0.05875 z m 0,0.591218 v 0.05875 0.05968 0.05875 0.05875 0.05967 0.05875 0.05875 0.05967 0.05875 0.05876 h 0.05876 0.05968 0.05876 0.05875 0.05968 0.05876 0.05968 0.05875 0.05876 0.05968 0.05875 0.05875 0.05968 0.05875 0.05875 0.05967 0.05875 0.05875 0.05968 0.05875 v -0.05876 -0.05875 -0.05967 -0.05875 -0.05875 -0.05967 -0.05875 -0.05875 -0.05968 -0.05875 h -0.05875 -0.05968 -0.05875 -0.05875 -0.05967 -0.05875 -0.05875 -0.05968 -0.05875 -0.05875 -0.05968 -0.05876 -0.05875 -0.05968 -0.05876 -0.05968 -0.05875 -0.05876 -0.05968 z m -1.1815052,0 H 9.5548575 9.4961085 9.4373597 9.3776782 9.3189294 9.2601805 9.200499 9.1417501 9.0830011 9.0233198 8.9645708 8.9058224 8.8461408 8.787392 8.7277104 8.6689616 8.6102127 8.5505313 8.4917824 8.4330334 v 0.05875 0.05968 0.05875 0.05875 0.05967 0.05875 0.05875 0.05967 0.05875 0.05876 h 0.058748 0.058748 0.059681 0.058748 0.058748 0.059681 0.058748 0.059681 0.058748 0.058748 0.059681 0.058748 0.058748 0.059681 0.058748 0.058748 0.059681 0.058748 0.058748 0.059681 v -0.05876 -0.05875 -0.05967 -0.05875 -0.05875 -0.05967 -0.05875 -0.05875 -0.05968 z M 13.159055,11.8427 h 0.05968 0.05875 0.05875 0.05967 0.05875 0.05967 0.05875 0.05875 0.05967 0.05875 0.05876 0.05967 0.05875 0.05875 0.05968 0.05876 0.05875 0.05967 0.05875 0.05967 V 11.78395 11.72428 11.66553 11.60678 11.5471 11.48835 11.4296 11.36993 11.31118 11.2515 h -0.05967 -0.05875 -0.05967 -0.05875 -0.05876 -0.05968 -0.05875 -0.05875 -0.05967 -0.05876 -0.05875 -0.05967 -0.05875 -0.05875 -0.05967 -0.05875 -0.05967 -0.05875 -0.05875 -0.05968 v 0.05968 0.05875 0.05967 0.05875 0.05875 0.05968 0.05875 0.05875 0.05967 z m 0,-0.59122 v -0.05875 -0.05875 -0.05968 -0.05875 -0.05875 -0.05968 -0.05875 -0.05875 -0.05971 -0.05876 -0.05876 -0.05968 -0.05876 -0.05968 -0.05876 -0.05876 -0.05968 -0.05875 -0.05876 -0.05968 -0.05876 -0.058756 -0.059676 -0.058756 -0.058756 -0.059676 -0.058756 -0.059676 -0.058756 -0.058756 h -0.05875 -0.05875 -0.05968 -0.05875 -0.05875 -0.05967 -0.05875 -0.05875 -0.05968 -0.05875 v 0.058756 0.058756 0.059676 0.058756 0.059676 0.058756 0.058756 0.059676 0.058756 0.05876 0.05968 0.05876 0.05876 0.05968 0.05875 0.05876 0.05968 0.05876 0.05968 0.05876 0.05876 0.05968 0.05875 0.05875 0.05967 0.05875 0.05875 0.05968 0.05875 0.05875 h 0.05875 0.05968 0.05875 0.05875 0.05967 0.05875 0.05875 0.05968 0.05875 z m 0,-1.7717912 h 0.05968 0.05875 0.05875 0.05967 0.05875 0.05967 0.05875 0.05875 0.05967 0.05875 0.05876 0.05967 0.05875 0.05875 0.05968 0.05876 0.05875 0.05967 0.05875 0.05967 V 9.4200126 9.3612567 9.3025009 9.2428248 9.184069 9.1253132 9.065637 9.0068812 8.947205 8.8884492 h -0.05967 -0.05875 -0.05967 -0.05875 -0.05876 -0.05968 -0.05875 -0.05875 -0.05967 -0.05876 -0.05875 -0.05967 -0.05875 -0.05875 -0.05967 -0.05875 -0.05967 -0.05875 -0.05875 -0.05968 v 0.058756 0.059676 0.058756 0.059676 0.058756 0.058756 0.059676 0.058756 0.058756 z m 1.182438,0 v 0.058756 0.058756 0.059676 0.058756 0.059676 0.058756 0.058756 0.059676 0.058756 0.05876 h 0.05875 0.05876 0.05968 0.05875 0.05875 0.05967 0.05876 0.05874 0.05968 0.05875 0.05967 0.05876 0.05875 0.05968 0.05875 0.05875 0.05968 0.05875 0.05875 0.05968 v -0.05876 -0.058756 -0.059676 -0.058756 -0.058756 -0.059676 -0.058756 -0.059676 -0.058756 -0.058756 h -0.05968 -0.05875 -0.05875 -0.05968 -0.05875 -0.05875 -0.05968 -0.05875 -0.05876 -0.05967 -0.05875 -0.05968 -0.05874 -0.05876 -0.05967 -0.05875 -0.05875 -0.05968 -0.05876 z m 0,1.7717912 h 0.05875 0.05876 0.05968 0.05875 0.05875 0.05967 0.05876 0.05874 0.05968 0.05875 0.05967 0.05876 0.05875 0.05968 0.05875 0.05875 0.05968 0.05875 0.05875 0.05968 V 11.19273 11.13398 11.0743 11.01555 10.9568 10.89712 10.83837 10.77962 10.71994 10.66119 h -0.05968 -0.05875 -0.05875 -0.05968 -0.05875 -0.05875 -0.05968 -0.05875 -0.05876 -0.05967 -0.05875 -0.05968 -0.05874 -0.05876 -0.05967 -0.05875 -0.05875 -0.05968 -0.05876 -0.05875 v 0.05875 0.05968 0.05875 0.05875 0.05968 0.05875 0.05875 0.05968 0.05875 z M 2.5245748,4.7527347 v 0.058748 0.059681 0.058748 0.058748 0.059681 0.058748 0.059682 0.058748 0.058748 0.059681 h 0.058748 0.058748 v -0.059678 -0.058749 -0.058749 -0.059681 -0.058749 -0.059681 -0.058749 -0.058749 -0.059681 -0.058749 h -0.058748 z m 0,0.5912188 h -0.059681 -0.058749 -0.058748 -0.059682 -0.058749 -0.058749 -0.059681 -0.058749 -0.058749 -0.059681 v 0.058748 0.058748 0.059681 0.058748 0.058748 0.059681 0.058748 0.058748 0.059681 0.058748 h 0.059681 0.058748 0.058748 0.059681 0.058748 0.058748 0.059681 0.058748 0.058748 0.059681 V 5.8754915 5.81581 5.757061 5.6983121 5.6386307 5.5798818 5.5211328 5.4614514 5.4027024 Z M 1.933356,5.9342404 H 1.8746075 1.814926 1.7561774 1.6974288 1.6377473 1.5789987 1.52025 1.4605689 1.4018206 1.3430723 v 0.059681 0.058748 0.058748 0.059681 0.058748 0.058748 0.059681 0.058748 0.058748 0.059681 0.058748 0.058748 0.059681 0.058748 0.059681 0.058748 0.058748 0.059681 0.058748 0.058748 0.059681 0.058748 0.058748 0.059681 0.058748 0.059681 0.058748 0.058748 0.059681 0.058748 0.058756 0.059676 0.058756 0.058756 0.059676 0.058756 0.058756 0.059676 0.058756 0.059676 0.058756 0.058756 0.059676 0.058756 0.058756 0.059676 0.058756 0.058756 0.059676 0.058756 h 0.058748 0.058748 0.059681 0.058749 0.058749 0.059681 0.058749 0.058749 0.059682 0.058748 V 8.8297638 8.7700877 8.7113318 8.652576 8.5928999 8.5341441 8.4753883 8.4157121 8.3569562 8.2982004 8.2385243 8.1797685 8.1200924 8.0613365 8.0025807 7.9429045 7.8841487 7.8253929 7.7657168 7.7069609 7.6482123 7.5885308 7.5297822 7.4710336 7.411352 7.3526034 7.2929218 7.2341733 7.1754247 7.1157431 7.0569945 6.9982459 6.9385643 6.8798157 6.8210672 6.7613856 6.7026369 6.6429554 6.5842068 6.5254582 6.4657767 6.4070281 6.3482794 6.2885979 6.2298493 6.1711007 6.1114192 6.0526705 5.9939219 Z m 0,2.9542287 v 0.058756 0.059676 0.058756 0.059676 0.058756 0.058756 0.059676 0.058756 0.058756 0.059676 H 1.993037 2.051785 2.110533 2.170214 2.228962 2.28771 2.347391 2.406139 2.464887 2.524568 V 9.4200325 9.3612766 9.3025208 9.2428447 9.1840889 9.1253331 9.0656568 9.006901 8.9472249 8.8884691 h -0.059675 -0.058749 -0.058749 -0.059681 -0.058749 -0.058749 -0.059681 -0.058749 -0.058749 z m 0.5912188,0.5912197 v 0.058756 0.058756 0.059676 0.058756 0.059676 0.058756 0.058756 0.059676 0.058756 0.05876 h 0.058748 0.058748 v -0.05876 -0.058756 -0.059676 -0.058756 -0.058756 -0.059676 -0.058756 -0.059676 -0.058756 -0.058756 h -0.058747 z m 6.498745,-0.5912197 v 0.058756 0.059676 0.058756 0.059676 0.058756 0.058756 0.059676 0.058756 0.058756 0.059676 h -0.058749 -0.058749 -0.059682 -0.058749 -0.059681 -0.058749 -0.058749 -0.059682 -0.058749 -0.058749 v 0.058756 0.058756 0.059676 0.058756 0.059676 0.058756 0.058756 0.059676 0.058756 0.05876 0.05968 0.05876 0.05875 0.05968 0.05876 0.05876 0.05968 0.05876 0.05968 0.05876 h 0.058748 0.058748 0.059681 0.058748 0.058748 0.059681 0.058748 0.059681 0.058748 0.058748 v 0.05876 0.05968 0.05875 0.05875 0.05968 0.05875 0.05875 0.05967 0.05875 0.05875 h 0.059681 0.058748 0.058748 0.059681 0.058748 0.058748 0.059681 0.058748 0.058748 0.059681 v 0.05968 0.05875 0.05968 0.05875 0.05875 0.05968 0.05875 0.05875 0.05967 0.05875 h 0.058748 0.059681 0.058748 0.058748 0.059681 0.058748 0.058748 0.05968 0.05875 0.05875 0.05968 0.05875 0.05968 0.05876 0.05876 0.05968 0.05876 0.05876 0.05968 0.05876 0.05876 0.05968 0.05876 0.05876 0.05968 0.05876 0.05968 0.05876 0.05876 0.05968 v -0.05875 -0.05967 -0.05875 -0.05875 -0.05968 -0.05875 -0.05875 -0.05968 -0.05875 -0.05968 h 0.05876 0.05875 0.05968 0.05875 0.05875 0.05968 0.05875 0.05875 0.05967 0.05875 v -0.05875 -0.05875 -0.05967 -0.05875 -0.05875 -0.05968 -0.05875 -0.05875 -0.05968 -0.05876 -0.05876 -0.05968 -0.05876 -0.05968 -0.05876 -0.05876 -0.05968 -0.05875 -0.05876 -0.05968 h -0.05874 -0.05968 -0.05875 -0.05875 -0.05967 -0.05875 -0.05876 -0.05968 -0.05875 -0.05876 V 10.011272 9.9525161 9.89284 9.8340842 9.7753284 9.7156521 9.6568963 9.5972202 9.5384644 9.4797086 h -0.05966 -0.05876 -0.05876 -0.05968 -0.05876 -0.05968 -0.05876 -0.05876 -0.05968 -0.05876 V 9.4200325 9.3612766 9.3025208 9.2428447 9.1840889 9.1253331 9.0656568 9.006901 8.9472249 8.8884691 h -0.05875 -0.05968 -0.05876 -0.05876 -0.05968 -0.05876 -0.05876 -0.05968 -0.05875 -0.05968 -0.05875 -0.05875 -0.05968 H 9.9688951 9.9101465 9.850465 9.7917164 9.7329678 9.6732862 9.6145376 9.554856 9.4961074 9.4373588 9.3776773 9.3189286 9.26018 9.2004985 9.1417499 9.0830013 Z m -6.498745,1.7727249 v 0.05875 0.05968 0.05875 0.05875 0.05967 0.05875 0.05875 0.05967 0.05875 0.05875 h 0.058748 0.058748 v -0.05875 -0.05875 -0.05967 -0.05875 -0.05875 -0.05967 -0.05875 -0.05875 -0.05968 -0.05875 h -0.058748 z m 0,0.590286 h -0.059681 -0.058749 -0.058748 -0.059682 -0.058749 -0.058749 -0.059681 -0.058749 -0.058749 -0.059681 v 0.05968 0.05875 0.05967 0.05875 0.05875 0.05968 0.05875 0.05875 0.05968 0.05875 h 0.059681 0.058748 0.058748 0.059681 0.058748 0.058748 0.059681 0.058748 0.058748 0.059681 V 11.78394 11.72426 11.66551 11.60676 11.54708 11.48833 11.42958 11.36991 11.31116 Z M 1.933356,11.8427 H 1.8746075 1.814926 1.7561774 1.6974288 1.6377473 1.5789987 1.52025 1.4605689 1.4018206 1.3430723 v 0.05875 0.05968 0.05875 0.05875 0.05968 0.05875 0.05968 0.05875 0.05875 0.05967 0.05875 0.05875 0.05968 0.05875 0.05875 0.05967 0.05875 0.05968 0.05875 0.05875 0.05968 0.05875 0.05875 0.05967 0.05875 0.05875 0.05968 0.05875 0.05875 0.05968 0.05875 0.05967 0.05875 0.05875 0.05967 0.05875 0.05875 0.05967 0.05875 0.05875 h 0.058748 0.058748 0.059681 0.058749 0.058749 0.059681 0.058749 0.058749 0.059682 0.058748 V 14.14691 14.08816 14.02849 13.96974 13.91099 13.85132 13.79257 13.73382 13.67415 13.6154 13.55572 13.49697 13.43822 13.37854 13.31979 13.26104 13.20137 13.14261 13.08386 13.02418 12.96543 12.90668 12.84701 12.78826 12.72858 12.66983 12.61108 12.5514 12.49265 12.4339 12.37422 12.31547 12.25672 12.19704 12.13829 12.07861 12.01986 11.96111 11.90144 Z m 0,2.363009 v 0.05968 0.05875 0.05876 0.05967 0.05875 0.05967 0.05875 0.05876 0.05968 0.05875 H 1.993037 2.051785 2.110533 2.170214 2.228962 2.28771 2.347391 2.406139 2.464887 2.524568 v -0.05875 -0.05968 -0.05876 -0.05875 -0.05967 -0.05875 -0.05967 -0.05876 -0.05875 -0.05968 H 2.464891 2.406142 2.347393 2.287712 2.228963 2.170214 2.110533 2.051784 1.993035 Z m 0.5912188,0.59122 v 0.05875 0.05968 0.05875 0.05875 0.05968 0.05875 0.05967 0.05875 0.05875 0.05967 h 0.058748 0.058748 v -0.05967 -0.05875 -0.05875 -0.05967 -0.05875 -0.05968 -0.05875 -0.05875 -0.05968 -0.05875 h -0.058748 z" />
  </g>
</svg>
