<?xml version="1.0" encoding="UTF-8" standalone="no"?>
<svg
   xmlns:dc="http://purl.org/dc/elements/1.1/"
   xmlns:cc="http://creativecommons.org/ns#"
   xmlns:rdf="http://www.w3.org/1999/02/22-rdf-syntax-ns#"
   xmlns:svg="http://www.w3.org/2000/svg"
   xmlns="http://www.w3.org/2000/svg"
   xmlns:sodipodi="http://sodipodi.sourceforge.net/DTD/sodipodi-0.dtd"
   xmlns:inkscape="http://www.inkscape.org/namespaces/inkscape"
   width="30.0mm"
   height="15.0mm"
   viewBox="0 0 30.0 15.0"
   version="1.1"
   id="svg8"
   sodipodi:docname="beluga.svg"
   inkscape:version="1.0.1 (3bc2e813f5, 2020-09-07)">
  <defs
     id="defs2">
    <clipPath
       clipPathUnits="userSpaceOnUse"
       id="clipPath891">
      <path
         d="M 0,850.393 H 850.394 V 0 H 0 Z"
         id="path889" />
    </clipPath>
  </defs>
  <sodipodi:namedview
     id="base"
     pagecolor="#ffffff"
     bordercolor="#666666"
     borderopacity="1.0"
     inkscape:pageopacity="0.0"
     inkscape:pageshadow="2"
     inkscape:zoom="16"
     inkscape:cx="45.30013"
     inkscape:cy="32.436716"
     inkscape:document-units="mm"
     inkscape:current-layer="g854"
     inkscape:document-rotation="0"
     showgrid="true"
     inkscape:window-width="1714"
     inkscape:window-height="1356"
     inkscape:window-x="1715"
     inkscape:window-y="254"
     inkscape:window-maximized="0"
     borderlayer="true">
    <inkscape:grid
       spacingx="2.54"
       spacingy="2.54"
       empspacing="1"
       type="xygrid"
       units="mm"
       id="grid834" />
  </sodipodi:namedview>
  <metadata
     id="metadata5">
    <rdf:RDF>
      <cc:Work
         rdf:about="">
        <dc:format>image/svg+xml</dc:format>
        <dc:type
           rdf:resource="http://purl.org/dc/dcmitype/StillImage" />
        <dc:title></dc:title>
      </cc:Work>
    </rdf:RDF>
  </metadata>
  <g
     inkscape:label="[fixed] BG"
     inkscape:groupmode="layer"
     sodipodi:insensitive="true"
     id="g840"
     style="display:inline">
    <rect
       x="0"
       y="0"
       width="30"
       height="15"
       style="fill:#ffffff;fill-opacity:1;stroke:none"
       id="rect838" />
  </g>
  <g
     inkscape:label="Edge.Cuts"
     inkscape:groupmode="layer"
     id="g842"
     style="display:inline"
     sodipodi:insensitive="true" />
  <g
     inkscape:label="B.Cu"
     inkscape:groupmode="layer"
     id="g844"
     style="display:inline"
     sodipodi:insensitive="true" />
  <g
     inkscape:label="B.Mask"
     inkscape:groupmode="layer"
     id="g846"
     style="display:inline"
     sodipodi:insensitive="true" />
  <g
     inkscape:label="B.SilkS"
     inkscape:groupmode="layer"
     id="g848"
     style="display:inline"
     sodipodi:insensitive="true" />
  <g
     inkscape:label="F.Cu"
     inkscape:groupmode="layer"
     id="g850"
     style="display:inline"
     sodipodi:insensitive="true">
    <path
       id="path1123"
       style="fill:#aa0000;fill-opacity:1;fill-rule:nonzero;stroke:none;stroke-width:0.0843375"
       d="m 51.408203,3.046875 c -1.779942,-0.00827 -4.995,1.096232 -4.046875,3.4042969 1.097987,2.6826916 5.185485,2.7084164 7.210938,4.4257811 2.753113,2.333112 4.846105,5.839696 4.808593,9.541016 C 59.422438,16.371286 59.962305,12.449718 58.71875,8.5527344 57.870484,5.8993923 54.173884,3.0595364 51.408203,3.046875 Z m 14.013672,6.8203125 c -1.696876,-0.066372 -4.032598,1.5747175 -4.623047,3.1757815 -0.865134,2.354028 -0.637542,4.771404 -0.720703,7.25 0.0748,-2.266403 1.448292,-4.359035 3.199219,-5.714844 1.285054,-0.998219 3.784851,-0.901995 4.529297,-2.515625 0.64459,-1.389123 -1.295128,-2.1536496 -2.384766,-2.1953125 z M 58.927734,21.845703 c -0.903773,-0.01106 -1.804803,0.04803 -2.695312,0.181641 -3.510127,0.528208 -6.729523,2.369561 -8.996094,5.09375 -1.688606,2.033627 -2.695984,4.100585 -3.261719,6.658203 -0.06229,0.287172 -0.128679,0.582769 -0.195312,0.886719 -0.61071,-0.36545 -1.195821,-0.478516 -1.677735,-0.478516 -1.676122,0 -2.845742,1.309202 -2.974609,1.458984 -0.282822,0.333052 -0.35753,0.796004 -0.195312,1.199219 0.162255,0.40769 0.539868,0.685241 0.976562,0.726563 0.137273,0.01247 0.316871,0.04554 0.375,0.132812 0.23297,0.35743 0.06597,1.002971 -0.02148,1.373047 -0.004,0.01223 -0.0074,0.02527 -0.0078,0.03711 -0.361893,-0.02074 -0.757194,-0.156668 -1.185547,-0.439453 -0.565651,-0.374627 -2.091522,-1.294873 -1.484375,-2.064453 0.603013,-0.769243 5.775784,-3.849997 4.673828,-13.423828 0,0 -6.218148,1.759181 -7.86914,9.132812 0,0 -1.593024,-5.226961 -10.289063,-3.904296 0,0 0.562848,7.955013 10.623047,9.240234 0,0 0.548424,0.05439 0.873047,0.640625 0.510967,0.935125 0.993523,1.936482 1.890625,2.892578 C 37.087801,41.234444 36.7008,41.157734 36.37697,40.833985 36.006786,40.459773 35.507031,40.25 34.974609,40.25 c -0.528037,0 -1.026017,0.209766 -1.40039,0.583984 -0.773462,0.773711 -0.773347,2.028882 -0.0039,2.806641 0.76941,0.765112 1.784373,1.288038 2.890626,1.496094 0.361814,0.07068 0.732906,0.105468 1.111328,0.105469 1.501375,0 2.934156,-0.568899 3.953125,-1.558594 0.01247,-0.01663 0.02805,-0.03038 0.04102,-0.04297 0.315931,-0.315931 0.742221,-0.492187 1.191406,-0.492187 0.453226,0 0.877176,0.17626 1.19336,0.492187 0.465966,0.46588 1.001722,0.840803 1.583984,1.115234 0.744533,0.353462 1.563674,0.535157 2.41211,0.535157 0.25387,0 0.502634,-0.01545 0.748046,-0.04883 1.230989,-0.162104 2.364121,-0.715513 3.25,-1.601563 0.32024,-0.315931 0.744261,-0.496094 1.19336,-0.496094 0.453396,0 0.875396,0.180156 1.191406,0.496094 1.064682,1.064761 2.488405,1.650391 3.998047,1.650391 1.509725,0 2.933286,-0.58563 3.998047,-1.650391 0.315893,-0.315931 0.73801,-0.496094 1.191406,-0.496094 0.449099,0 0.873356,0.180156 1.189453,0.496094 1.064595,1.064761 2.484188,1.650391 3.998047,1.650391 0.420083,0 0.835038,-0.0457 1.234375,-0.132813 0.349304,-0.09592 0.686678,-0.209146 1.023438,-0.333984 0.640373,-0.278249 1.230823,-0.676219 1.738281,-1.183594 0.295181,-0.295181 0.682099,-0.465745 1.09375,-0.486328 0.03326,-0.0045 0.06627,-0.0059 0.09961,-0.0059 0.453226,0 0.874998,0.17626 1.195313,0.492187 1.064678,1.068892 2.484499,1.65625 3.99414,1.65625 0.969207,0 1.904902,-0.24601 2.732422,-0.703125 0.457618,-0.25406 0.883156,-0.574617 1.265625,-0.953125 0.374211,-0.374211 0.576172,-0.874223 0.576172,-1.402344 0,-0.532509 -0.201968,-1.030093 -0.576172,-1.404297 -0.374173,-0.374211 -0.874052,-0.580078 -1.402343,-0.580078 -0.145626,0 -0.290636,0.01804 -0.427735,0.04687 -0.985893,-0.598938 -2.329183,-1.646194 -3.148437,-3.230469 -0.619714,-1.198015 -1.302135,-1.919365 -1.955078,-2.34375 -0.282773,-1.375725 -0.787171,-2.70659 -1.431641,-3.849609 -3.05675,-5.440485 -9.462646,-8.953828 -15.789063,-9.03125 z m -14.36914,13.447266 c 0.08819,0.08623 0.175754,0.160382 0.263672,0.259765 -0.08796,-0.09932 -0.175438,-0.173595 -0.263672,-0.259765 z m 27.115234,0.06055 c 2.98e-4,-2.77e-4 0.0017,2.76e-4 0.002,0 -0.154126,0.14321 -0.250943,0.252649 -0.283203,0.289062 -0.143414,0.166432 -0.235629,0.365588 -0.269531,0.574219 0.03378,-0.208479 0.124202,-0.407768 0.267578,-0.574219 0.03226,-0.03641 0.128919,-0.145782 0.283203,-0.289062 z m -10.564453,2.15625 c 0.09951,0.0377 0.205257,0.06097 0.314453,0.07031 0.112177,0.01285 0.308945,0.04124 0.367188,0.132813 -0.05982,-0.09007 -0.257745,-0.118099 -0.369141,-0.13086 -0.108551,-0.0093 -0.213514,-0.03489 -0.3125,-0.07227 z m -10.685547,0.01563 c 0.07871,0.02427 0.158046,0.04749 0.242188,0.05469 0.112252,0.01285 0.312889,0.04124 0.371093,0.132813 3.4e-4,5.15e-4 -3.38e-4,0.0014 0,0.002 -0.05813,-0.09158 -0.256888,-0.119962 -0.36914,-0.132813 -0.0848,-0.0073 -0.164865,-0.032 -0.244141,-0.05664 z m 17.615234,1.074218 c 0.229554,0.504198 0.478187,0.999801 0.810547,1.460938 0.06863,0.09488 0.147894,0.174455 0.234375,0.240234 -0.08702,-0.06597 -0.165387,-0.144853 -0.234375,-0.240234 -0.332721,-0.461624 -0.580954,-0.956016 -0.810547,-1.460938 z M 51.068359,39.125 c -0.0869,0.175164 -0.195158,0.344699 -0.332031,0.501953 0.136811,-0.157275 0.245244,-0.32678 0.332031,-0.501953 z m 19.328125,1.367188 c -0.245558,0.05524 -0.487955,0.07346 -0.710937,0.04492 0.223512,0.02893 0.464686,0.0104 0.710937,-0.04492 z m -27.705078,5.357421 c -1.522208,0 -2.948707,0.589336 -4.021484,1.66211 -0.303613,0.303598 -0.741547,0.478515 -1.203125,0.478515 -0.457531,0 -0.893656,-0.173355 -1.197266,-0.472656 -0.378591,-0.37847 -0.877592,-0.58789 -1.414062,-0.58789 -0.532339,0 -1.031728,0.20782 -1.410157,0.582031 -0.777993,0.777845 -0.781328,2.046709 -0.0039,2.824219 1.027401,1.02723 2.490699,1.61914 4.025391,1.61914 1.53047,0 2.998156,-0.59191 4.025391,-1.61914 0.320311,-0.315927 0.745905,-0.494141 1.199218,-0.494141 0.453404,0 0.881146,0.177996 1.197266,0.498047 C 44.965833,51.408819 46.391941,52 47.914062,52 c 1.522209,0 2.952448,-0.591181 4.025391,-1.660156 0.320228,-0.320058 0.745761,-0.498047 1.203125,-0.498047 0.453396,0 0.877102,0.177996 1.197266,0.498047 1.073023,1.068975 2.503581,1.664062 4.021484,1.664062 1.522125,0 2.952538,-0.594862 4.025391,-1.667968 0.320315,-0.315927 0.747772,-0.494141 1.201172,-0.494141 0.453229,0 0.879055,0.177996 1.199218,0.498047 1.073023,1.07311 2.499276,1.664062 4.021485,1.664062 1.522121,0 2.952447,-0.590952 4.02539,-1.664062 0.320232,-0.320058 0.747856,-0.498047 1.201172,-0.498047 0.453313,0 0.878904,0.177996 1.199219,0.498047 1.077075,1.07311 2.503269,1.664062 4.025391,1.664062 1.51799,0 2.94871,-0.590728 4.021484,-1.667968 0.378497,-0.374121 0.585938,-0.877652 0.585938,-1.410157 0,-0.532089 -0.20743,-1.035475 -0.585938,-1.414062 -0.378338,-0.37417 -0.878074,-0.582031 -1.410156,-0.582031 -0.536644,0 -1.035554,0.20782 -1.414063,0.582031 -0.303613,0.308095 -0.739901,0.478515 -1.197265,0.478515 -0.461745,0 -0.899516,-0.170446 -1.203125,-0.478515 -1.07294,-1.072774 -2.49928,-1.66211 -4.021485,-1.66211 -1.522125,0 -2.952367,0.595029 -4.02539,1.667969 -0.320228,0.316093 -0.747943,0.494141 -1.201172,0.494141 -0.453396,0 -0.878828,-0.178021 -1.199219,-0.494141 -1.072944,-1.07294 -2.499363,-1.667969 -4.021484,-1.667969 -1.522209,0 -2.952364,0.589336 -4.025391,1.66211 -0.320228,0.320394 -0.744036,0.5 -1.197266,0.5 -0.453399,0 -0.881197,-0.17961 -1.201172,-0.5 -1.073196,-1.072774 -2.50341,-1.66211 -4.021484,-1.66211 -1.522125,0 -2.954491,0.589336 -4.027344,1.66211 -0.320318,0.320394 -0.747942,0.5 -1.201172,0.5 -0.453316,0 -0.881008,-0.17961 -1.201171,-0.5 -1.073114,-1.072774 -2.499443,-1.66211 -4.021485,-1.66211 z"
       transform="scale(0.26458333)" />
  </g>
  <g
     inkscape:label="F.Mask"
     inkscape:groupmode="layer"
     id="g852"
     style="display:inline">
    <path
       id="path911"
       style="display:inline;fill:#38a77d;fill-opacity:1;fill-rule:nonzero;stroke:none;stroke-width:0.0223143"
       d="m 11.139159,9.0454334 c -0.443474,0 -0.752802,0.346375 -0.786898,0.386005 -0.07483,0.08812 -0.09476,0.2103909 -0.05184,0.3170749 0.04293,0.107868 0.143081,0.181518 0.258623,0.192451 0.03632,0.0033 0.08388,0.0122 0.09926,0.03529 0.06164,0.09457 0.01764,0.2654797 -0.0055,0.3633957 -0.0011,0.0034 -0.0022,0.0066 -0.0022,0.0099 -0.05174,0.209063 -0.158625,0.246227 -0.31487,0.380492 -0.119962,0.06817 -0.270549,0.150536 -0.416885,0.168187 -0.105632,0.01203 -0.208095,-0.0085 -0.293916,-0.0943 -0.09794,-0.09901 -0.230246,-0.154402 -0.371116,-0.154402 -0.13971,0 -0.271511,0.05539 -0.370564,0.154402 -0.204645,0.204711 -0.204681,0.537001 -0.0011,0.742783 0.203573,0.202436 0.472145,0.340883 0.764841,0.395931 0.09573,0.0187 0.193791,0.02757 0.293915,0.02757 0.397239,0 0.776471,-0.150617 1.046073,-0.412474 0.0033,-0.0044 0.0076,-0.0077 0.01103,-0.01103 0.08359,-0.08359 0.196023,-0.130139 0.31487,-0.130139 0.119916,0 0.232315,0.04655 0.315972,0.130139 0.123287,0.123264 0.265034,0.222408 0.419091,0.295018 0.196991,0.09352 0.413529,0.141719 0.638011,0.141719 0.06717,0 0.133033,-0.0044 0.197965,-0.01323 0.325699,-0.04289 0.625299,-0.189069 0.859688,-0.423503 0.08473,-0.08359 0.197149,-0.131242 0.315973,-0.131242 0.119961,0 0.23181,0.04765 0.315421,0.131242 0.281697,0.281718 0.658228,0.436737 1.057654,0.436737 0.399448,0 0.775935,-0.155019 1.057653,-0.436737 0.08358,-0.08359 0.19546,-0.131242 0.315421,-0.131242 0.118824,0 0.231236,0.04765 0.31487,0.131242 0.281674,0.281718 0.657111,0.436737 1.057653,0.436737 0.111147,0 0.220792,-0.01224 0.32645,-0.03529 0.09242,-0.02538 0.181654,-0.0552 0.270755,-0.08823 0.169432,-0.07362 0.325632,-0.178973 0.459897,-0.313216 0.0781,-0.0781 0.180588,-0.12359 0.289504,-0.129036 0.0088,-0.0012 0.01765,-0.0011 0.02647,-0.0011 0.119916,0 0.231222,0.04655 0.315972,0.130139 0.281696,0.282811 0.657676,0.43784 1.057102,0.43784 0.256436,0 0.503984,-0.06489 0.722932,-0.185835 0.121078,-0.06722 0.233526,-0.151858 0.334721,-0.252005 0.09901,-0.09901 0.152748,-0.231384 0.152748,-0.371116 0,-0.140893 -0.05374,-0.27266 -0.152748,-0.371668 -0.099,-0.09901 -0.231339,-0.1533 -0.371116,-0.1533 -0.03853,0 -0.07677,0.0045 -0.113044,0.01213 C 21.237046,10.504294 20.88142,10.2272 20.664659,9.8080273 20.500693,9.4910523 20.32017,9.3004984 20.147412,9.1882134 c -0.17164,-0.110032 -0.335568,-0.142822 -0.470926,-0.142822 -0.443452,0 -0.753308,0.346365 -0.78745,0.384902 -0.07589,0.08807 -0.09582,0.2114939 -0.05183,0.3181779 0.04291,0.107868 0.143137,0.181518 0.25752,0.192451 0.03082,0.0023 0.08441,0.01105 0.09981,0.03419 0.266254,0.4027067 -0.687737,1.0258837 -0.978247,0.6242257 -0.176065,-0.244276 -0.262792,-0.523922 -0.399243,-0.7891047 -0.323514,-0.6305129 -0.715272,-0.7626349 -0.985967,-0.7626349 -0.443453,0 -0.753882,0.346397 -0.788001,0.386005 -0.07591,0.08801 -0.09533,0.2114929 -0.05128,0.3181779 0.04399,0.107867 0.14416,0.181463 0.259726,0.191348 0.02968,0.0034 0.08219,0.01106 0.0976,0.03529 0.311394,0.4720367 -0.637063,1.0301367 -0.947366,0.5790087 -0.161756,-0.235586 -0.296986,-0.492995 -0.426811,-0.7460607 -0.325721,-0.6316059 -0.717478,-0.7637379 -0.988173,-0.7637379 -0.444545,0 -0.754963,0.346397 -0.789104,0.386005 -0.07591,0.08801 -0.09584,0.2114929 -0.05184,0.3181779 0.04405,0.107867 0.14416,0.181463 0.259727,0.191348 0.0297,0.0034 0.08276,0.01106 0.09816,0.03529 0.289395,0.4389887 -0.597402,1.0654467 -0.930823,0.6165057 C 12.392435,10.351752 12.267107,10.077712 12.12954,9.8091593 11.955686,9.4757933 11.765187,9.2811774 11.583615,9.1722604 11.421881,9.0753704 11.266774,9.0454314 11.139158,9.0454314 Z" />
    <path
       d="m 9.222112,12.417019 c 0.141941,0 0.273975,0.05497 0.374144,0.155107 0.08033,0.07919 0.19583,0.125429 0.316885,0.125429 0.122126,0 0.237692,-0.04624 0.318023,-0.126567 0.283839,-0.283838 0.661284,-0.440128 1.064035,-0.440128 0.402707,0 0.78013,0.15629 1.064058,0.440128 0.08471,0.08477 0.198061,0.132011 0.318001,0.132011 0.119917,0 0.233273,-0.04724 0.318024,-0.132011 0.283859,-0.283838 0.662377,-0.440128 1.065106,-0.440128 0.401657,0 0.780174,0.15629 1.064124,0.440128 0.08466,0.08477 0.198017,0.132011 0.317979,0.132011 0.119917,0 0.232158,-0.04724 0.316885,-0.132011 0.283905,-0.283838 0.6624,-0.440128 1.065151,-0.440128 0.402728,0 0.780152,0.157384 1.064035,0.441266 0.08477,0.08364 0.196969,0.130873 0.31693,0.130873 0.119917,0 0.233252,-0.04724 0.317979,-0.130873 0.283904,-0.283882 0.662422,-0.441266 1.065151,-0.441266 0.40275,0 0.780175,0.15629 1.064057,0.440128 0.08033,0.08151 0.195853,0.126567 0.318023,0.126567 0.121011,0 0.236554,-0.04505 0.316885,-0.126567 0.100147,-0.09901 0.23218,-0.153969 0.374167,-0.153969 0.14078,0 0.272859,0.05497 0.372961,0.153969 0.100147,0.100168 0.155174,0.23334 0.155174,0.374122 0,0.140892 -0.05503,0.274042 -0.155174,0.373028 -0.283838,0.28502 -0.662378,0.441265 -1.064013,0.441265 -0.402728,0 -0.780175,-0.156245 -1.065151,-0.440172 -0.08475,-0.08468 -0.19699,-0.132012 -0.316929,-0.132012 -0.11994,0 -0.233274,0.04733 -0.318002,0.132012 -0.283883,0.283927 -0.6624,0.440172 -1.065128,0.440172 -0.402751,0 -0.780175,-0.156245 -1.064079,-0.440172 -0.08471,-0.08468 -0.196969,-0.132012 -0.316886,-0.132012 -0.119962,0 -0.233274,0.04733 -0.318024,0.130919 -0.283859,0.283926 -0.662422,0.441265 -1.065151,0.441265 -0.401612,0 -0.78013,-0.157339 -1.064034,-0.440172 -0.08471,-0.08468 -0.196969,-0.132012 -0.31693,-0.132012 -0.121011,0 -0.233252,0.04733 -0.317979,0.132012 -0.283883,0.282833 -0.6624,0.439078 -1.065151,0.439078 -0.402728,0 -0.780152,-0.156245 -1.065151,-0.439078 -0.08364,-0.08468 -0.196945,-0.132012 -0.316908,-0.132012 -0.119939,0 -0.232158,0.04733 -0.316907,0.130919 -0.271789,0.271788 -0.660214,0.428054 -1.065151,0.428054 -0.406054,0 -0.79334,-0.156266 -1.065173,-0.428054 -0.205693,-0.205716 -0.204644,-0.541345 0.0012,-0.74715 0.100126,-0.09901 0.232158,-0.153969 0.373006,-0.153969"
       style="display:inline;fill:#38a77d;fill-opacity:1;fill-rule:nonzero;stroke:none;stroke-width:0.0223143"
       id="path919" />
    <path
       d="M 15.710954,5.4021774 C 15.720879,4.4228698 15.167378,3.4952194 14.43895,2.8779168 13.903049,2.4235307 12.821386,2.4169033 12.530877,1.7071078 12.280019,1.0964323 13.130618,0.80373563 13.601561,0.80592243 c 0.731753,0.00335 1.709968,0.75484817 1.934405,1.45687827 0.329024,1.031077 0.185989,2.0686918 0.174988,3.1393767"
       style="display:inline;fill:#38a77d;fill-opacity:1;fill-rule:nonzero;stroke:none;stroke-width:0.0223143"
       id="path923" />
    <path
       d="m 15.895832,5.3691434 c 0.01979,-0.5996523 0.382892,-1.1531587 0.846158,-1.5118832 0.340004,-0.2641121 1.001355,-0.2387854 1.198323,-0.6657249 0.170548,-0.3675389 -0.342234,-0.5700187 -0.630534,-0.581042 -0.448965,-0.017561 -1.067361,0.4170542 -1.223584,0.8406689 -0.2289,0.6228367 -0.16836,1.2621862 -0.190363,1.9179812"
       style="display:inline;fill:#38a77d;fill-opacity:1;fill-rule:nonzero;stroke:none;stroke-width:0.0223143"
       id="path927" />
  </g>
  <g
     inkscape:label="F.SilkS"
     inkscape:groupmode="layer"
     id="g854"
     style="display:inline">
    <path
       id="path895"
       style="display:inline;fill:#ffc66c;fill-opacity:1;fill-rule:nonzero;stroke:none;stroke-width:0.0843375"
       d="m 58.927734,21.845703 c -0.903773,-0.01106 -1.804803,0.04803 -2.695312,0.181641 -3.510127,0.528208 -6.729523,2.369561 -8.996094,5.09375 -1.688606,2.033627 -2.695984,4.100585 -3.261719,6.658203 -0.06229,0.287172 -0.128679,0.582769 -0.195312,0.886719 0.686252,0.411651 1.407378,1.148199 2.064453,2.408203 0.519938,1.015002 0.993743,2.04955 1.675781,2.96875 1.260253,1.696788 4.611343,-0.668952 3.517578,-2.328125 -0.05813,-0.09158 -0.256888,-0.119962 -0.36914,-0.132813 -0.436698,-0.03736 -0.81601,-0.316923 -0.982422,-0.724609 -0.166413,-0.403219 -0.09152,-0.868536 0.195312,-1.201172 0.129037,-0.1497 1.302335,-1.460938 2.982422,-1.460938 1.023099,0 2.503217,0.49963 3.734375,2.886719 0.490594,0.956556 1.00189,1.929788 1.613282,2.820313 1.172798,1.70505 4.759044,-0.403428 3.582031,-2.1875 -0.05828,-0.09158 -0.258918,-0.119962 -0.371094,-0.132813 -0.436781,-0.03736 -0.814207,-0.316923 -0.980469,-0.724609 -0.166488,-0.403219 -0.09159,-0.868536 0.195313,-1.201172 0.12895,-0.1497 1.300523,-1.460938 2.976562,-1.460938 1.023099,0 2.50384,0.499772 3.726563,2.882813 0.515641,1.002265 0.844346,2.059178 1.509765,2.982422 1.098078,1.518081 4.703663,-0.837342 3.697266,-2.359375 -0.05811,-0.08746 -0.262421,-0.120213 -0.378906,-0.128906 -0.432397,-0.04133 -0.810553,-0.318877 -0.972657,-0.726563 -0.166337,-0.403219 -0.09144,-0.870224 0.195313,-1.203125 0.129037,-0.145652 1.302477,-1.455078 2.978516,-1.455078 0.511506,0 1.130654,0.125147 1.779297,0.541016 -0.282702,-1.376387 -0.78688,-2.708029 -1.431641,-3.851563 -3.05675,-5.440485 -9.462646,-8.953828 -15.789063,-9.03125 z m 0.81836,0.626953 c 1.185195,0 2.142578,0.323004 2.142578,0.726563 0,0.399065 -0.957383,0.724609 -2.142578,0.724609 -1.185196,0 -2.146485,-0.325529 -2.146485,-0.724609 0,-0.403544 0.961289,-0.726563 2.146485,-0.726563 z"
       transform="scale(0.26458333)" />
    <path
       d="m 9.098884,8.5513704 c 0.436825,-1.95094 2.081901,-2.416394 2.081901,-2.416394 0.291559,2.533076 -1.077289,3.3484609 -1.236836,3.5519899 -0.160641,0.203618 0.243181,0.4467097 0.392843,0.5458297 0.113335,0.07482 0.217854,0.111126 0.313605,0.116615 -0.05172,0.209064 -0.158453,0.246463 -0.314698,0.38075 -0.119963,0.06814 -0.270695,0.150711 -0.417055,0.168362 C 9.680952,10.645389 9.553337,10.380182 9.418045,10.132583 9.332155,9.9774763 9.186891,9.9631953 9.186891,9.9631953 6.52513,9.6231473 6.376606,7.5181954 6.376606,7.5181954 c 2.300827,-0.349955 2.722278,1.033175 2.722278,1.033175"
       style="display:inline;fill:#ffc66c;fill-opacity:1;fill-rule:nonzero;stroke:none;stroke-width:0.0223143"
       id="path903" />
  </g>
  <g
     inkscape:label="Dwgs.User"
     inkscape:groupmode="layer"
     id="g856"
     style="display:none"
     sodipodi:insensitive="true" />
  <g
     inkscape:label="Drill"
     inkscape:groupmode="layer"
     id="g858"
     style="display:none"
     sodipodi:insensitive="true" />
</svg>
